<svg width="589" height="388" viewBox="0 0 589 388" fill="none" xmlns="http://www.w3.org/2000/svg">
<path d="M130.346 15.9298L136.341 7.64545C156.645 -14.9071 188.047 -22.478 217.08 -28.6166C212.885 -12.7186 207.952 3.2861 206.838 19.5202L223.677 12.7717C223.462 27.7631 219.433 42.5188 218.914 57.9308C216.934 83.6361 218.464 109.998 217.211 135.598C211.457 137.115 205.985 140.097 200.372 142.346C198.128 174.823 201.188 207.331 206.457 239.554C212.407 275.415 220.265 311.394 233.131 345.959C238.803 360.162 244.91 374.679 256.063 385.915C269.39 398.714 286.429 409.151 305.374 409.606C363.387 411.185 420.767 405.363 476.915 392.97C468.663 405.301 459.53 416.994 450.833 429.013C425.217 433.197 399.181 435.193 373.424 438.644C343.842 441.861 314.845 446.122 285.429 448.197C264.851 449.084 243.833 449.653 224.556 441.384C224.556 441.384 216.384 437.995 208.661 433.047C199.2 426.832 192.283 418.03 192.283 418.03C181.865 406.704 175.159 393.016 170.219 378.713C159.199 348.018 153.337 316.628 147.475 285.239C134.86 211.736 123.735 138.03 120.404 63.6524C120.05 47.6189 122.497 30.456 130.346 15.9298Z" fill="#2E5AC3" stroke="#DD2526" stroke-width="0.047"/>
<path d="M206.932 3.80326L214.389 -1.16296C237.96 -13.4629 266.056 -10.0674 291.77 -6.22087C283.46 5.54658 274.512 17.1757 268.629 30.1621L284.518 29.7756C279.753 42.017 271.929 52.8974 266.786 65.391C257.293 85.8875 250.481 107.997 241.617 128.63C236.43 128.114 231.024 128.888 225.728 129.017C213.946 154.991 206.509 182.615 200.972 210.681C194.881 241.942 190.32 273.884 190.303 306.198C190.613 319.593 191.183 333.38 196.901 346.018C203.924 360.604 214.718 374.387 230.131 380.559C277.273 399.61 326.161 412.393 376.049 419.403C365.5 427.001 354.423 433.806 343.605 441.01C321.295 436.605 299.31 430.275 277.109 425.225C251.839 418.812 226.73 413.436 201.946 406.135C184.781 400.566 167.353 394.6 154.058 381.911C154.058 381.911 148.387 376.628 143.561 370.202C137.696 362.205 134.711 352.861 134.711 352.861C129.625 340.375 128.309 327.086 128.632 313.832C128.979 285.26 133.774 257.697 138.569 230.134C150.709 165.931 164.134 102.017 184.164 39.9379C188.781 26.6672 196.043 13.3264 206.932 3.80326Z" fill="#F3F4F6"/>
</svg>
