<svg xmlns="http://www.w3.org/2000/svg" width="432" height="561" fill="none"><path fill="#FF2021" stroke="#DD2526" stroke-width=".047" d="m-17.264 258.604-7.438-8.218c-19.405-26.551-20.715-61.247-21.02-93.125 15.822 8.105 31.6 17.009 48.427 21.961L-.823 159.99c15.711 3.72 30.367 11.385 46.456 15.522 26.598 8.068 54.63 12.608 81.272 19.89.376 6.387 2.352 12.821 3.528 19.232 33.66 9.923 68.475 14.291 103.459 16.277 38.952 2.119 78.432 2.266 117.486-3.17 16.129-2.638 32.68-5.658 46.851-14.736 16.275-10.993 30.852-26.429 35.341-46.19 13.942-60.471 19.972-122.004 18.833-183.776 11.214 11.528 21.571 23.832 32.362 35.754-1.026 27.84-4.44 55.609-6.267 83.425-2.882 31.773-4.542 63.176-8.589 94.509-3.424 21.787-7.276 43.961-20.05 62.25 0 0-5.292 7.78-12.128 14.726-8.535 8.473-19.251 13.676-19.251 13.676-14.109 8.285-29.916 12.127-45.996 13.973-34.595 4.402-68.828 3.233-103.062 2.063-79.926-3.904-159.752-9.417-238.632-23.261-16.927-3.367-34.448-9.934-48.054-21.55Z"/><path fill="#F3F4F6" d="m-19.342 196.673-3.665-9.208c-7.669-28.424 3.998-58.669 15.526-86.2 11.267 11.517 22.199 23.708 35.54 32.799l3.94-17.568c12.79 7.709 23.17 18.513 36.147 26.69 21 14.577 44.598 26.527 65.928 40.439-2.026 5.606-2.626 11.712-3.939 17.568 26.68 18.2 56.46 31.949 87.273 43.694 34.343 13 69.893 24.453 107.125 30.977 15.522 2.356 31.566 4.504 47.707.755 18.747-4.794 37.608-13.901 48.974-29.625 34.964-48.059 63.185-99.301 85.031-152.806 5.844 13.142 10.629 26.705 15.946 40.064-11.234 23.672-24.595 46.599-36.541 70.021-14.364 26.526-27.489 53.084-42.741 78.897-11.155 17.773-22.839 35.757-41.13 47.837 0 0-7.653 5.18-16.39 9.199-10.834 4.845-22.425 6.249-22.425 6.249-15.792 3.086-31.469 1.858-46.653-1.166-32.829-6.135-63.268-16.963-93.707-27.791-70.634-26.291-140.58-53.938-206.59-88.486-14.018-7.755-27.387-18.435-35.356-32.339Z"/></svg>