<svg width="150" height="150" viewBox="0 0 150 150" fill="none" xmlns="http://www.w3.org/2000/svg">
<rect x="1.5" y="1" width="147" height="148" rx="73.5" stroke="white" stroke-width="2"/>
<path d="M74.7087 30L28.5 70.5347H39.1093V120H53.4677C53.7475 116.285 52.7179 85.7996 54.2511 83.0465C56.0529 77.104 61.2904 72.4148 67.4008 71.2733V66.7968H72.3361V59.7463L63.4279 61.3131V55.4713L72.7614 57.1164C73.6007 55.8182 75.6711 55.8182 76.5104 57.1164L85.8551 55.4713V61.3131L76.9581 59.7463V66.7968H81.8934V70.9823C90.9583 71.2397 98.6467 79.4989 98.2774 88.5526H101.277V93.8125H85.4522V88.5526H88.4515C88.6418 85.24 86.4147 82.0169 83.214 81.0992C81.9158 80.4949 72.2354 80.8866 70.6686 80.7859C67.5015 80.7411 64.491 82.9682 63.6069 86.0122C63.3943 86.706 63.2936 87.4223 63.2936 88.1497V120C70.8924 120 101.993 120 110.163 120V70.5347H120.772L74.7087 30ZM98.1543 109.077C97.5388 114.125 90.3204 114.818 88.7537 109.984C87.3995 107.041 93.2973 98.0204 93.3533 97.6175C93.398 97.819 98.546 106.257 98.1543 109.077Z" fill="white"/>
</svg>
