<svg width="150" height="150" viewBox="0 0 150 150" fill="none" xmlns="http://www.w3.org/2000/svg">
<rect x="1.5" y="1" width="147" height="148" rx="73.5" stroke="white" stroke-width="2"/>
<path d="M104.502 98.4C104.461 98.2749 104.42 98.1915 104.337 98.0665C104.337 98.0248 104.296 98.0248 104.255 97.9831C104.214 97.8997 104.173 97.858 104.09 97.7746C104.049 97.7329 104.049 97.7329 104.008 97.6912C103.967 97.6495 103.885 97.5661 103.844 97.5244C103.802 97.4828 103.761 97.4828 103.761 97.4411C103.679 97.3994 103.597 97.3577 103.514 97.316C103.473 97.316 103.473 97.2743 103.432 97.2743C103.309 97.2326 103.227 97.1909 103.103 97.1492C103.062 97.1492 103.062 97.1492 103.021 97.1492C102.939 97.1492 102.856 97.1075 102.774 97.1075C102.733 97.1075 102.692 97.1075 102.651 97.1075C102.568 97.1075 102.486 97.1075 102.404 97.1075C102.363 97.1075 102.321 97.1075 102.28 97.1075C102.157 97.1075 102.033 97.1492 101.91 97.1492L94.0522 99.2755L90.8021 100.151C90.7198 100.151 90.6787 100.193 90.5964 100.193C90.5964 100.193 90.5964 100.193 90.5552 100.193H90.5141C90.473 100.193 90.4318 100.193 90.3495 100.193H90.3084C90.2261 100.193 90.185 100.151 90.1027 100.109L78.5011 93.3135C78.0897 93.0633 77.6371 92.8549 77.1846 92.7298C76.8143 92.6047 76.4029 92.5213 75.9915 92.4379C75.7035 92.3962 75.4155 92.3962 75.1275 92.3962C74.8396 92.3962 74.5516 92.3962 74.2636 92.4379C73.811 92.4796 73.3996 92.6047 72.9882 92.7298C72.5768 92.8549 72.1654 93.0633 71.754 93.2718L60.1524 100.068C60.0701 100.109 60.029 100.109 59.9467 100.151H59.9056C59.8644 100.151 59.8233 100.151 59.741 100.151H59.6999C59.6999 100.151 59.6999 100.151 59.6587 100.151C59.5764 100.151 59.5353 100.151 59.453 100.109L57.1903 99.484L48.2217 97.0658C48.1394 97.0241 48.0571 97.0241 47.9748 97.0241C47.9337 97.0241 47.9337 97.0241 47.8925 97.0241C47.8514 97.0241 47.7691 97.0241 47.728 97.0241C47.6868 97.0241 47.6868 97.0241 47.6457 97.0241C47.5223 97.0241 47.44 97.0241 47.3166 97.0658H47.2754C47.1931 97.0658 47.0697 97.1075 46.9874 97.1492H46.9463C46.864 97.1909 46.7406 97.2326 46.6583 97.2743C46.6583 97.2743 46.6172 97.2743 46.6172 97.316C46.5349 97.3577 46.4526 97.4411 46.3703 97.4828L46.3292 97.5244C46.2469 97.6078 46.1646 97.6495 46.1235 97.7329C46.0412 97.8163 46.0001 97.8997 45.9589 97.9831L45.9178 98.0248C45.8766 98.1081 45.8355 98.2332 45.7944 98.3166V98.3583C45.7532 98.4834 45.7121 98.5668 45.7121 98.6918C45.6709 98.942 45.6709 99.2338 45.7532 99.484C45.8355 99.8592 46.0412 100.193 46.3292 100.485C46.4115 100.568 46.5349 100.651 46.6172 100.735C46.8229 100.86 47.0286 100.985 47.2343 101.027C47.2754 101.027 47.2754 101.027 47.3166 101.068L51.9654 102.319L52.7471 102.528C52.8294 102.569 52.9117 102.611 52.994 102.653C53.4465 102.945 53.5288 103.612 53.1585 104.029C53.1174 104.112 53.0351 104.154 52.9528 104.195L49.8261 106.03L49.2502 106.363C49.0033 106.488 48.7976 106.697 48.6331 106.905C48.2217 107.406 48.016 108.114 48.1805 108.74C48.2217 108.865 48.2628 108.99 48.3039 109.115C48.3451 109.198 48.3862 109.282 48.4685 109.365C48.5096 109.449 48.5919 109.532 48.6331 109.615C48.7565 109.782 48.921 109.865 49.0856 109.991C49.4147 110.199 49.785 110.282 50.1553 110.282C50.2375 110.282 50.3198 110.282 50.4021 110.282C50.6489 110.241 50.9369 110.157 51.1426 110.032L54.9687 107.781C55.051 107.739 55.0921 107.697 55.1744 107.697H55.2155C55.2978 107.697 55.339 107.656 55.4212 107.656C55.4212 107.656 55.4212 107.656 55.4624 107.656C55.5035 107.656 55.5858 107.656 55.6269 107.656C55.6681 107.656 55.7504 107.697 55.7915 107.697H55.8326C55.8738 107.739 55.9149 107.739 55.9972 107.781C56.0384 107.823 56.0795 107.864 56.1206 107.906C56.1206 107.906 56.1206 107.906 56.1618 107.948C56.2029 107.989 56.244 108.031 56.244 108.114V108.156C56.2852 108.198 56.2852 108.239 56.2852 108.323C56.2852 108.323 56.2852 108.323 56.2852 108.365C56.2852 108.406 56.2852 108.49 56.2852 108.531V108.573C56.2852 108.656 56.2852 108.698 56.244 108.781L54.8041 114.285C54.7219 114.66 54.7219 115.035 54.763 115.369C54.8864 115.953 55.2567 116.495 55.7915 116.745C56.0795 116.912 56.4086 116.953 56.7377 116.953C57.6428 116.953 58.4656 116.328 58.7125 115.411L61.6335 104.32L61.7157 104.029C61.7569 103.903 61.798 103.82 61.8803 103.695C61.9626 103.612 62.0449 103.528 62.1271 103.445L66.2823 101.027C66.4469 100.902 66.6526 100.818 66.8583 100.735C66.9406 100.693 66.9817 100.693 67.064 100.651C67.1874 100.61 67.3109 100.568 67.4343 100.526C67.5166 100.526 67.5988 100.485 67.6811 100.485C67.8045 100.443 67.928 100.443 68.0102 100.401C68.0925 100.401 68.1748 100.401 68.2571 100.401C68.3394 100.401 68.4628 100.401 68.5451 100.401H68.5862C68.6273 100.401 68.6685 100.401 68.7096 100.401C68.833 100.401 68.9565 100.401 69.121 100.443C69.1622 100.443 69.2445 100.443 69.2856 100.485C69.409 100.526 69.5324 100.526 69.6559 100.568C69.697 100.568 69.7381 100.568 69.7793 100.61C69.9438 100.651 70.1084 100.735 70.273 100.776C70.3141 100.776 70.3552 100.818 70.3552 100.818C70.4787 100.86 70.6021 100.943 70.7255 100.985C70.7667 101.027 70.8078 101.027 70.8489 101.068C70.9724 101.152 71.0546 101.193 71.1781 101.277C71.2192 101.318 71.2603 101.318 71.3015 101.36C71.4249 101.485 71.5483 101.569 71.6717 101.694L71.7129 101.735C71.7952 101.819 71.9186 101.944 72.0009 102.069C72.0009 102.111 72.042 102.111 72.0831 102.152L72.1243 102.194C72.2066 102.277 72.2888 102.402 72.33 102.528C72.3711 102.569 72.3711 102.611 72.4123 102.653C72.4946 102.819 72.5768 102.945 72.6591 103.111V103.153C72.7414 103.32 72.7825 103.445 72.8237 103.612C72.8237 103.653 72.8648 103.737 72.8648 103.778C72.906 103.903 72.906 104.029 72.9471 104.195C72.9471 104.237 72.9471 104.32 72.9882 104.362C73.0294 104.571 73.0294 104.737 73.0294 104.946V109.824C73.0294 109.865 73.0294 109.949 73.0294 109.991C72.9882 110.116 72.9471 110.199 72.906 110.324C72.8648 110.366 72.8237 110.407 72.7825 110.449L64.6779 118.663C63.9373 119.413 63.7728 120.664 64.4722 121.498C64.5544 121.623 64.6779 121.706 64.7601 121.79C64.7601 121.79 64.7601 121.79 64.8013 121.79C64.9247 121.873 65.007 121.956 65.1304 121.998C65.1304 121.998 65.1715 121.998 65.1715 122.04C65.295 122.081 65.4184 122.123 65.5418 122.165H65.5829C65.7064 122.207 65.8298 122.207 65.9532 122.207H65.9944C66.0766 122.207 66.1589 122.207 66.2412 122.207C66.2823 122.207 66.3646 122.207 66.4058 122.207C66.488 122.207 66.5703 122.165 66.6526 122.123C66.6937 122.123 66.776 122.081 66.8172 122.081C66.8994 122.04 66.9817 121.998 67.064 121.956C67.1051 121.915 67.1463 121.915 67.1874 121.873C67.3108 121.79 67.4343 121.706 67.5166 121.581L71.5895 117.454C71.6717 117.37 71.7129 117.328 71.7952 117.287C71.7952 117.287 71.8363 117.287 71.8363 117.245C71.9186 117.203 71.9597 117.203 72.042 117.162C72.042 117.162 72.042 117.162 72.0831 117.162C72.1243 117.162 72.1654 117.162 72.2066 117.162C72.2477 117.162 72.2477 117.162 72.2888 117.162H72.33C72.4123 117.162 72.4946 117.203 72.5357 117.203C72.5357 117.203 72.5357 117.203 72.5768 117.203C72.618 117.245 72.7003 117.245 72.7414 117.287L72.7825 117.328C72.8237 117.37 72.906 117.412 72.9471 117.495C72.9882 117.537 73.0294 117.62 73.0294 117.704V117.745C73.0705 117.829 73.0705 117.912 73.0705 117.996V122.832C73.0705 123.916 73.8522 124.917 74.9218 125C75.0041 125 75.0864 125 75.1275 125C75.251 125 75.3744 125 75.4978 124.958H75.5389C75.6624 124.917 75.7858 124.917 75.8681 124.833H75.9092C76.0326 124.791 76.1149 124.75 76.1972 124.666C76.1972 124.666 76.2383 124.666 76.2383 124.625C76.3206 124.541 76.4029 124.5 76.4852 124.416L76.5263 124.375C76.6086 124.291 76.6909 124.208 76.732 124.124C76.732 124.124 76.732 124.083 76.7732 124.083C76.8554 123.999 76.8966 123.874 76.9377 123.791V123.749C76.9789 123.624 77.02 123.499 77.0611 123.416C77.0611 123.416 77.0611 123.416 77.0611 123.374C77.1023 123.249 77.1023 123.124 77.1023 122.957V118.454C77.1023 118.371 77.1023 118.287 77.1434 118.204V118.162C77.1846 118.079 77.1846 118.037 77.2257 117.954C77.2668 117.87 77.308 117.829 77.3903 117.787L77.4314 117.745C77.4725 117.704 77.5548 117.662 77.596 117.662C77.596 117.662 77.596 117.662 77.6371 117.662C77.7194 117.62 77.7605 117.62 77.8428 117.62H77.884C77.9251 117.62 77.9251 117.62 77.9662 117.62C78.0074 117.62 78.0485 117.62 78.0897 117.62C78.0897 117.62 78.0897 117.62 78.1308 117.62C78.2131 117.62 78.2954 117.662 78.3365 117.704C78.3365 117.704 78.3776 117.704 78.3776 117.745C78.4599 117.787 78.5011 117.829 78.5834 117.912L82.6563 122.04C82.7385 122.123 82.862 122.248 82.9854 122.29C83.2322 122.457 83.4791 122.54 83.7259 122.582C83.8493 122.623 83.9728 122.623 84.0962 122.623C84.5487 122.623 85.0424 122.457 85.4127 122.165C86.3589 121.373 86.3178 119.872 85.4538 118.996L77.3491 110.783C77.1846 110.616 77.1023 110.366 77.1023 110.157V105.279C77.1023 105.071 77.1023 104.904 77.1434 104.696C77.1434 104.654 77.1434 104.571 77.1846 104.529C77.2257 104.404 77.2257 104.279 77.2668 104.112C77.2668 104.07 77.308 103.987 77.308 103.945C77.3491 103.778 77.3903 103.653 77.4726 103.487V103.445C77.5548 103.278 77.6371 103.111 77.7194 102.986C77.7605 102.944 77.7605 102.903 77.8017 102.861C77.884 102.736 77.9251 102.653 78.0074 102.528C78.0485 102.486 78.0485 102.444 78.0897 102.444C78.0897 102.444 78.0897 102.402 78.1308 102.402C78.2131 102.277 78.3365 102.194 78.4188 102.069C78.4188 102.069 78.4599 102.027 78.4599 101.986C78.5833 101.86 78.7068 101.735 78.8302 101.652C78.8713 101.61 78.9125 101.61 78.9536 101.569C79.077 101.485 79.1593 101.402 79.2827 101.36C79.3239 101.318 79.365 101.318 79.4062 101.277C79.5296 101.193 79.653 101.152 79.7764 101.11C79.8176 101.11 79.8587 101.068 79.8587 101.068C80.0233 100.985 80.1878 100.943 80.3524 100.902C80.3935 100.902 80.4347 100.902 80.4758 100.86C80.5992 100.818 80.7227 100.818 80.8461 100.776C80.8872 100.776 80.9695 100.776 81.0106 100.735C81.1341 100.735 81.2575 100.693 81.422 100.693C81.4632 100.693 81.5043 100.693 81.5455 100.693H81.5866C81.6689 100.693 81.7923 100.693 81.8746 100.693C81.9569 100.693 82.0391 100.693 82.1214 100.693C82.2448 100.693 82.3683 100.735 82.4506 100.776C82.5328 100.776 82.6151 100.818 82.6974 100.818C82.8208 100.86 82.9442 100.902 83.0677 100.943C83.1499 100.985 83.1911 100.985 83.2734 101.027C83.4791 101.11 83.6436 101.193 83.8493 101.318L88.0045 103.737C88.2102 103.862 88.3748 104.07 88.4159 104.279V104.32L91.4192 115.619C91.666 116.536 92.4888 117.162 93.3939 117.162C93.7642 117.162 94.1756 117.037 94.5047 116.828C94.587 116.786 94.6693 116.703 94.7516 116.62C95.2041 116.161 95.451 115.411 95.3687 114.785C95.3687 114.66 95.3275 114.577 95.3275 114.452L93.8876 108.948C93.8876 108.865 93.8465 108.823 93.8465 108.74V108.698C93.8465 108.615 93.8465 108.573 93.8465 108.531C93.8465 108.531 93.8465 108.531 93.8465 108.49C93.8465 108.448 93.8876 108.365 93.8876 108.323V108.281C93.9288 108.239 93.9288 108.198 93.9699 108.114C93.9699 108.114 93.9699 108.114 94.011 108.073C94.0522 108.031 94.0933 107.989 94.1345 107.948C94.1756 107.906 94.2167 107.864 94.299 107.864H94.3402C94.3813 107.823 94.4636 107.823 94.5047 107.823C94.5459 107.823 94.6281 107.823 94.6693 107.823C94.6693 107.823 94.6693 107.823 94.7104 107.823C94.7927 107.823 94.8338 107.823 94.9161 107.864H94.9573C95.0395 107.864 95.0807 107.906 95.163 107.948L98.989 110.199C99.3182 110.408 99.6473 110.491 100.018 110.491C100.223 110.491 100.388 110.449 100.594 110.408C100.758 110.366 100.964 110.282 101.128 110.199C101.375 110.032 101.581 109.824 101.745 109.574C101.787 109.49 101.869 109.407 101.91 109.323C102.157 108.823 102.157 108.281 101.951 107.781C101.828 107.406 101.581 107.03 101.252 106.78C101.169 106.697 101.046 106.613 100.964 106.572L97.2611 104.404C96.8497 104.154 96.7263 103.653 96.8909 103.236C96.9732 102.986 97.1789 102.819 97.4668 102.736L99.565 102.152L103.021 101.235C103.103 101.235 103.144 101.193 103.227 101.152C103.432 101.068 103.597 100.943 103.761 100.818C103.967 100.651 104.173 100.401 104.296 100.151C104.378 100.026 104.42 99.9009 104.461 99.7759C104.502 99.6508 104.502 99.484 104.543 99.3589C104.666 98.9837 104.625 98.6918 104.502 98.4Z" fill="white"/>
<path d="M108.081 43.866L78.1309 25.813C76.3208 24.729 74.058 24.729 72.2478 25.813L42.2976 43.866C40.5697 44.9083 39.5 46.8261 39.5 48.8691V89.8947L48.1395 92.2295C51.6364 93.1885 55.3802 92.6881 58.5069 90.8537L69.2034 84.5998C71.0136 83.5574 73.0707 82.9737 75.1688 82.9737C77.267 82.9737 79.324 83.5574 81.1342 84.5998L91.8307 90.8537C94.9574 92.6881 98.7012 93.1885 102.198 92.2295L110.838 89.8947V48.8691C110.92 46.8261 109.85 44.95 108.081 43.866ZM73.6055 74.1766C73.6055 75.3023 72.7004 76.2612 71.5485 76.2612H61.5102C60.3994 76.2612 59.4531 75.344 59.4531 74.1766V64.0035C59.4531 62.8778 60.3582 61.9189 61.5102 61.9189H71.5485C72.6593 61.9189 73.6055 62.8361 73.6055 64.0035V74.1766ZM73.6055 56.9575C73.6055 58.0832 72.7004 59.0421 71.5485 59.0421H61.5102C60.3994 59.0421 59.4531 58.1249 59.4531 56.9575V46.7844C59.4531 45.6587 60.3582 44.6998 61.5102 44.6998H71.5485C72.6593 44.6998 73.6055 45.6171 73.6055 46.7844V56.9575ZM90.8845 74.1766C90.8845 75.3023 89.9794 76.2612 88.8275 76.2612H78.7892C77.6784 76.2612 76.7322 75.344 76.7322 74.1766V64.0035C76.7322 62.8778 77.6373 61.9189 78.7892 61.9189H88.8275C89.9383 61.9189 90.8845 62.8361 90.8845 64.0035V74.1766ZM91.0079 55.4982C90.9668 55.5816 90.9256 55.7067 90.8434 55.7901C90.0617 57.291 89.0332 58.3333 87.9224 59.0004C86.8939 59.6258 85.8242 59.9593 84.7546 60.0844C85.454 59.9593 86.1945 59.6675 86.7704 59.0004C87.0584 58.6669 87.2641 58.2916 87.4287 57.7913C89.1566 52.9133 83.6438 49.6612 83.6438 49.6612C84.4666 52.7465 81.5456 52.7048 80.4348 54.9145C79.6943 56.3321 80.0234 57.9581 80.8873 59.0004C81.3399 59.5424 81.9981 59.9593 82.6975 60.0427C82.9444 60.0844 83.3146 60.1261 83.7261 60.1261C83.3146 60.1261 82.9032 60.0844 82.4918 60.0427C81.6279 59.9177 80.5994 59.5841 79.6943 59.0004C78.4189 58.2083 77.3081 56.9992 76.7322 55.1647C76.6499 54.9145 76.6087 54.6644 76.5265 54.4142C76.1973 52.8299 76.3208 51.454 76.7322 50.2449C77.555 47.8268 79.4474 46.034 80.9285 44.6581C81.2165 44.3663 81.5045 44.1161 81.7513 43.866C85.2482 40.4055 83.1089 37.9456 83.1089 37.9456C83.1089 37.9456 88.1692 39.7801 87.8401 44.533C87.8401 44.5747 87.8401 44.6164 87.8401 44.6581C87.7167 45.9506 87.0996 47.8268 88.1281 48.9942C89.3212 50.3283 90.3497 49.3694 90.8434 48.7023C91.0491 48.4105 91.1725 48.1603 91.1725 48.1603C91.1725 48.1603 93.0238 51.329 91.0079 55.4982Z" fill="white"/>
</svg>
