<svg width="51" height="50" viewBox="0 0 51 50" fill="none" xmlns="http://www.w3.org/2000/svg">
<g clip-path="url(#clip0_22076_2286)">
<path d="M24.1979 24.5938C24.1979 24.5938 25.1833 25 25.5021 25C25.7646 25 26.6667 24.6938 26.6667 24.6938C28.8375 23.8209 35.9167 20.3813 35.9167 12.7709V7.29168C35.9167 5.04168 34.4833 3.05627 32.3458 2.34793L26.1562 0.29585C25.7292 0.156266 25.2708 0.156266 24.8458 0.29585L18.6521 2.34793C16.5187 3.05627 15.0833 5.04168 15.0833 7.29168V12.7709C15.0833 19.5146 22.0604 23.525 24.1979 24.5938ZM19.25 7.29168C19.25 6.84168 19.5375 6.44377 19.9625 6.3021L25.5 4.46668L31.0354 6.3021C31.4625 6.44377 31.75 6.84168 31.75 7.29168V12.7709C31.75 17.3313 27.5167 19.7563 25.5938 20.6229C23.8458 19.6709 19.25 16.7896 19.25 12.7709V7.29168ZM37.6229 22.4917C38.4562 22.7729 39.3125 22.9167 40.1646 22.9167H48.4167C49.5687 22.9167 50.5 23.85 50.5 25C50.5 26.15 49.5687 27.0834 48.4167 27.0834H40.1646C38.8583 27.0834 37.5562 26.8667 36.2937 26.4417C35.2042 26.0729 34.6167 24.8917 34.9854 23.8C35.3521 22.7104 36.5292 22.1208 37.6229 22.4917ZM50.5 39.5834C50.5 40.7354 49.5687 41.6667 48.4167 41.6667H38.9771L30.5083 48.2771C29.0833 49.3875 27.3062 50 25.5021 50C23.6979 50 21.9187 49.3875 20.4958 48.2771L12.025 41.6667H2.58333C1.43333 41.6667 0.5 40.7354 0.5 39.5834C0.5 38.4313 1.43333 37.5 2.58333 37.5H12.7396C13.2042 37.5 13.6542 37.6542 14.0208 37.9417L23.0562 44.9938C24.4458 46.0771 26.5542 46.0771 27.9438 44.9938L34.4396 39.9229L26.05 32.4459L22.7083 35.5563C22.0833 36.1854 21.1479 36.55 20.1771 36.4584C19.2146 36.3834 18.3375 35.8875 17.7687 35.1C16.8292 33.7875 16.9937 31.9917 18.1604 30.8209L20.6917 28.4834C22.2833 27.0188 24.7417 26.6917 26.6417 27.6417C26.975 27.7459 27.2875 27.9354 27.5417 28.2084L27.5479 28.2146C27.6312 28.2792 37.5083 37.0813 37.9792 37.5H48.4146C49.5667 37.5 50.5 38.4313 50.5 39.5834ZM0.5 25C0.5 23.85 1.43333 22.9167 2.58333 22.9167H10.8292C11.6833 22.9167 12.5396 22.775 13.3771 22.4917C14.4729 22.1271 15.6479 22.7125 16.0167 23.8021C16.3833 24.8917 15.7979 26.075 14.7062 26.4417C13.4396 26.8688 12.1354 27.0834 10.8313 27.0834H2.58333C1.43333 27.0834 0.5 26.15 0.5 25Z" fill="#2955B6"/>
</g>
<defs>
<clipPath id="clip0_22076_2286">
<rect width="50" height="50" fill="white" transform="translate(0.5)"/>
</clipPath>
</defs>
</svg>
