<svg width="50" height="51" viewBox="0 0 50 51" fill="none" xmlns="http://www.w3.org/2000/svg">
<g clip-path="url(#clip0_22028_1707)">
<path d="M42.7083 32.0021V18.7583C43.525 18.4625 44.2958 18.0062 44.95 17.3521L48.2083 14.0938C50.5937 11.7083 50.5937 7.82917 48.2083 5.44583L44.95 2.1875C42.5625 -0.2 38.6833 -0.195833 36.3021 2.1875L33.0438 5.44583C32.4 6.08958 31.9375 6.85625 31.6375 7.6875H18.4667C17.475 3.57708 13.7896 0.502084 9.37708 0.502084C4.20625 0.5 0 4.70625 0 9.875C0 13.9438 2.62083 17.3792 6.25 18.675V33.8333H5.83542C2.61875 33.8333 0 36.45 0 39.6667V44.6667C0 47.8833 2.61875 50.5 5.83542 50.5H10.8333C14.05 50.5 16.6667 47.8833 16.6667 44.6667V39.6667C16.6667 36.45 14.05 33.8333 10.8333 33.8333H10.4167V19.1437C14.4312 18.6917 17.6917 15.7375 18.5312 11.85H31.6354C31.9354 12.6813 32.3979 13.4479 33.0417 14.0917L36.3 17.35C36.9542 18.0042 37.7229 18.4604 38.5396 18.7562V32C34.3729 32.9521 31.2479 36.6708 31.2479 41.1229C31.2479 46.2917 35.4542 50.4979 40.6229 50.4979C45.7917 50.4979 49.9979 46.2917 49.9979 41.1229C49.9979 36.6708 46.8729 32.9521 42.7062 32L42.7083 32.0021ZM12.5 39.6667V44.6667C12.5 45.5854 11.7542 46.3333 10.8333 46.3333H5.83542C4.91667 46.3333 4.16667 45.5875 4.16667 44.6667V39.6667C4.16667 38.7479 4.91458 38 5.83542 38H10.8333C11.7521 38 12.5 38.7458 12.5 39.6667ZM9.375 15.0833C6.50208 15.0833 4.16667 12.7458 4.16667 9.875C4.16667 7.00417 6.50208 4.66667 9.375 4.66667C12.2479 4.66667 14.5833 7.00417 14.5833 9.875C14.5833 12.7458 12.2479 15.0833 9.375 15.0833ZM35.9875 11.1458C35.6187 10.7771 35.4187 10.2875 35.4187 9.76667C35.4187 9.24583 35.6208 8.75625 35.9875 8.3875L39.2458 5.12917C39.6146 4.76042 40.1042 4.55833 40.625 4.55833C41.1458 4.55833 41.6333 4.76042 42.0021 5.12917L45.2604 8.3875C45.6292 8.75625 45.8312 9.24583 45.8312 9.76667C45.8312 10.2875 45.6271 10.7771 45.2604 11.1458L42.0021 14.4042C41.2646 15.1417 39.9792 15.1396 39.2458 14.4042L35.9875 11.1458ZM40.625 46.3333C37.7521 46.3333 35.4167 43.9979 35.4167 41.125C35.4167 38.2521 37.7521 35.9167 40.625 35.9167C43.4979 35.9167 45.8333 38.2521 45.8333 41.125C45.8333 43.9979 43.4979 46.3333 40.625 46.3333Z" fill="#2D6BFE"/>
</g>
<defs>
<clipPath id="clip0_22028_1707">
<rect width="50" height="50" fill="white" transform="translate(0 0.5)"/>
</clipPath>
</defs>
</svg>
