<svg width="51" height="50" viewBox="0 0 51 50" fill="none" xmlns="http://www.w3.org/2000/svg">
<g clip-path="url(#clip0_22076_2316)">
<path d="M50.5 8.33333C50.5 3.7375 46.7625 0 42.1667 0C37.5708 0 33.8333 3.7375 33.8333 8.33333C33.8333 12.2083 36.4937 15.475 40.0833 16.4021V20.8333C40.0833 21.9813 39.1479 22.9167 38 22.9167H13C12.2687 22.9167 11.5687 23.0438 10.9167 23.2729V16.4021C14.5062 15.475 17.1667 12.2083 17.1667 8.33333C17.1667 3.7375 13.4292 0 8.83333 0C4.2375 0 0.5 3.7375 0.5 8.33333C0.5 12.2083 3.16042 15.475 6.75 16.4021V33.5958C3.16042 34.5229 0.5 37.7896 0.5 41.6646C0.5 46.2604 4.2375 49.9979 8.83333 49.9979C13.4292 49.9979 17.1667 46.2604 17.1667 41.6646C17.1667 37.7896 14.5062 34.5229 10.9167 33.5958V29.1646C10.9167 28.0167 11.8521 27.0813 13 27.0813H38C41.4458 27.0813 44.25 24.2771 44.25 20.8313V16.4C47.8396 15.4729 50.5 12.2083 50.5 8.33333ZM4.66667 8.33333C4.66667 6.03542 6.53542 4.16667 8.83333 4.16667C11.1312 4.16667 13 6.03542 13 8.33333C13 10.6313 11.1312 12.5 8.83333 12.5C6.53542 12.5 4.66667 10.6313 4.66667 8.33333ZM13 41.6667C13 43.9646 11.1312 45.8333 8.83333 45.8333C6.53542 45.8333 4.66667 43.9646 4.66667 41.6667C4.66667 39.3688 6.53542 37.5 8.83333 37.5C11.1312 37.5 13 39.3688 13 41.6667ZM42.1667 12.5C39.8687 12.5 38 10.6313 38 8.33333C38 6.03542 39.8687 4.16667 42.1667 4.16667C44.4646 4.16667 46.3333 6.03542 46.3333 8.33333C46.3333 10.6313 44.4646 12.5 42.1667 12.5Z" fill="#2955B6"/>
</g>
<defs>
<clipPath id="clip0_22076_2316">
<rect width="50" height="50" fill="white" transform="translate(0.5)"/>
</clipPath>
</defs>
</svg>
