<svg width="21" height="20" viewBox="0 0 21 20" fill="none" xmlns="http://www.w3.org/2000/svg">
<path d="M6.94444 6.44444V5.55556C6.94444 3.59188 8.53632 2 10.5 2C12.4637 2 14.0556 3.59188 14.0556 5.55556V6.44444M2.5 10L9.77798 13.2347C10.2376 13.439 10.7624 13.439 11.222 13.2347L18.5 10M5.34444 18H15.6556C16.6512 18 17.149 18 17.5293 17.8062C17.8638 17.6358 18.1358 17.3638 18.3062 17.0293C18.5 16.649 18.5 16.1512 18.5 15.1556V9.28889C18.5 8.29324 18.5 7.79542 18.3062 7.41513C18.1358 7.08062 17.8638 6.80865 17.5293 6.63821C17.149 6.44444 16.6512 6.44444 15.6556 6.44444H5.34444C4.3488 6.44444 3.85097 6.44444 3.47068 6.63821C3.13617 6.80865 2.86421 7.08062 2.69377 7.41513C2.5 7.79542 2.5 8.29324 2.5 9.28889V15.1556C2.5 16.1512 2.5 16.649 2.69377 17.0293C2.86421 17.3638 3.13617 17.6358 3.47068 17.8062C3.85097 18 4.3488 18 5.34444 18Z" stroke="#2955B6" stroke-width="2" stroke-linecap="round"/>
</svg>
