<svg width="51" height="50" viewBox="0 0 51 50" fill="none" xmlns="http://www.w3.org/2000/svg">
<g clip-path="url(#clip0_22076_2648)">
<path d="M25.5 0C22.0625 0 19.25 2.8125 19.25 6.25V43.75C19.25 47.1875 22.0625 50 25.5 50C28.9375 50 31.75 47.1875 31.75 43.75V6.25C31.75 2.8125 28.9375 0 25.5 0ZM27.5833 43.75C27.5833 44.8958 26.6458 45.8333 25.5 45.8333C24.3542 45.8333 23.4167 44.8958 23.4167 43.75V6.25C23.4167 5.10417 24.3542 4.16667 25.5 4.16667C26.6458 4.16667 27.5833 5.10417 27.5833 6.25V43.75ZM44.25 12.5C40.8125 12.5 38 15.3125 38 18.75V43.75C38 47.1875 40.8125 50 44.25 50C47.6875 50 50.5 47.1875 50.5 43.75V18.75C50.5 15.3125 47.6875 12.5 44.25 12.5ZM46.3333 43.75C46.3333 44.8958 45.3958 45.8333 44.25 45.8333C43.1042 45.8333 42.1667 44.8958 42.1667 43.75V18.75C42.1667 17.6042 43.1042 16.6667 44.25 16.6667C45.3958 16.6667 46.3333 17.6042 46.3333 18.75V43.75ZM6.75 25C3.3125 25 0.5 27.8125 0.5 31.25V43.75C0.5 47.1875 3.3125 50 6.75 50C10.1875 50 13 47.1875 13 43.75V31.25C13 27.8125 10.1875 25 6.75 25ZM8.83333 43.75C8.83333 44.8958 7.89583 45.8333 6.75 45.8333C5.60417 45.8333 4.66667 44.8958 4.66667 43.75V31.25C4.66667 30.1042 5.60417 29.1667 6.75 29.1667C7.89583 29.1667 8.83333 30.1042 8.83333 31.25V43.75Z" fill="#2955B6"/>
</g>
<defs>
<clipPath id="clip0_22076_2648">
<rect width="50" height="50" fill="white" transform="translate(0.5)"/>
</clipPath>
</defs>
</svg>
