<svg xmlns="http://www.w3.org/2000/svg" width="14" height="15" fill="none"><path fill="currentColor" d="M11.951 2.542A6.952 6.952 0 0 0 7.024.5C3.171.5.05 3.611.05 7.451c0 1.216.341 2.43.927 3.452L0 14.5l3.707-.972a7.132 7.132 0 0 0 3.317.826c3.854 0 6.976-3.11 6.976-6.951-.049-1.799-.732-3.549-2.049-4.861Zm-1.56 7.389c-.147.388-.83.777-1.171.826a2.732 2.732 0 0 1-1.074-.049c-.244-.097-.585-.194-.975-.389C5.415 9.59 4.293 7.84 4.195 7.694c-.097-.097-.732-.923-.732-1.798s.44-1.264.586-1.458c.146-.195.341-.195.488-.195h.341c.098 0 .244-.049.39.292.147.34.488 1.215.537 1.264a.309.309 0 0 1 0 .291 1.017 1.017 0 0 1-.195.292c-.098.097-.195.243-.244.292-.098.097-.195.194-.098.34.098.194.44.729.976 1.215.683.584 1.22.778 1.415.875.195.097.292.049.39-.048.097-.098.439-.487.536-.681.098-.194.244-.146.39-.097.147.048 1.025.486 1.171.583.195.097.293.146.342.195.049.145.049.486-.098.875Z"/></svg>