<svg width="51" height="51" viewBox="0 0 51 51" fill="none" xmlns="http://www.w3.org/2000/svg">
<g clip-path="url(#clip0_22028_91)">
<path d="M25.3334 0.5C20.3889 0.5 15.5554 1.96622 11.4441 4.71326C7.3329 7.4603 4.12859 11.3648 2.2364 15.9329C0.344206 20.5011 -0.150877 25.5277 0.813753 30.3773C1.77838 35.2268 4.1594 39.6814 7.65572 43.1777C11.152 46.674 15.6066 49.055 20.4561 50.0196C25.3057 50.9843 30.3323 50.4892 34.9005 48.597C39.4686 46.7048 43.3731 43.5005 46.1201 39.3893C48.8672 35.278 50.3334 30.4445 50.3334 25.5C50.3262 18.8718 47.69 12.5171 43.0031 7.83025C38.3163 3.14339 31.9616 0.507169 25.3334 0.5ZM45.2771 19.5L26.7188 23.1083C26.4267 22.6575 26.1704 22.1846 25.9521 21.6938L18.9938 5.65208C21.628 4.80775 24.4042 4.49719 27.1599 4.73857C29.9156 4.97994 32.5955 5.76841 35.0429 7.05784C37.4902 8.34727 39.6558 10.1118 41.4131 12.2482C43.1704 14.3845 44.484 16.8499 45.2771 19.5ZM25.3334 46.3333C20.7232 46.335 16.2428 44.8068 12.5947 41.9881C8.94653 39.1695 6.33692 35.2199 5.175 30.7585C4.01308 26.2972 4.36454 21.5764 6.17429 17.3363C7.98404 13.0962 11.1497 9.57651 15.1751 7.32917L22.1292 23.3521C23.1187 25.6295 24.6725 27.6171 26.6438 29.1271L40.5042 39.7354C38.5627 41.8162 36.2141 43.4756 33.6043 44.6106C30.9946 45.7457 28.1793 46.332 25.3334 46.3333ZM43.0417 36.4271L30.2813 26.6604L46.0751 23.5917C46.1313 24.2167 46.1709 24.8563 46.1709 25.5C46.1691 29.3632 45.0851 33.1486 43.0417 36.4271Z" fill="#2D6BFE"/>
</g>
<defs>
<clipPath id="clip0_22028_91">
<rect width="50" height="50" fill="white" transform="translate(0.333374 0.5)"/>
</clipPath>
</defs>
</svg>
