<svg width="76" height="72" viewBox="0 0 76 72" fill="none" xmlns="http://www.w3.org/2000/svg">
<g clip-path="url(#clip0_22002_1345)">
<g clip-path="url(#clip1_22002_1345)">
<g clip-path="url(#clip2_22002_1345)">
<path d="M37.1239 0H38.4239C42.2599 0.41 45.3799 3.077 48.1759 5.607C46.2259 6.359 44.2099 7.043 42.4549 8.137L44.4049 9.367C42.8449 10.461 41.0249 11.145 39.3989 12.239C36.6039 13.949 34.0029 16.069 31.2729 17.846C30.6879 17.367 29.9729 17.026 29.3229 16.616C25.8109 18.803 22.6909 21.538 19.7649 24.479C16.5149 27.761 13.3949 31.248 10.7939 35.145C9.75394 36.786 8.71394 38.495 8.38794 40.479C8.06294 42.803 8.25794 45.333 9.62294 47.316C13.7839 53.402 18.6599 58.872 24.1209 63.726C22.2359 63.795 20.3509 63.726 18.4649 63.726C16.1249 61.402 13.9789 58.872 11.7039 56.479C9.16794 53.675 6.56794 51.009 4.16194 48.137C2.53694 46.086 0.911943 43.966 0.326943 41.367C0.326943 41.367 0.0669432 40.274 0.000943233 39.111C-0.0640568 37.675 0.326943 36.308 0.326943 36.308C0.716943 34.393 1.62694 32.684 2.73194 31.111C5.07194 27.692 7.86794 24.752 10.6639 21.812C17.2939 15.042 24.0559 8.41 31.4679 2.53C33.0929 1.3 35.0429 0.274 37.1239 0Z" fill="#DD2526" stroke="#DD2526" stroke-width="0.047"/>
<path d="M45.705 9.23C47.07 8.547 48.565 8.068 49.995 7.658C53.441 10.667 56.627 14.018 59.878 17.231C64.298 21.811 68.784 26.393 72.36 31.726C73.335 33.094 74.18 34.598 74.57 36.308C75.286 39.111 75.026 42.325 73.335 44.718C71.45 47.179 69.63 49.709 67.355 51.829C66.704 47.453 65.404 43.214 63.388 39.316C63.844 43.692 64.624 48.206 63.844 52.65C63.584 54.017 63.454 55.521 62.478 56.615C60.463 58.94 58.512 61.402 56.367 63.658C56.432 61.88 56.887 60.171 57.212 58.393C58.057 52.718 58.122 46.906 57.862 41.163C57.407 44.786 57.212 48.41 56.367 51.897C55.587 56 54.027 59.897 52.661 63.795H29.061C27.956 63.932 27.111 63.111 26.266 62.495C21.52 58.803 17.229 54.359 13.914 49.162C12.484 46.701 10.988 43.829 11.704 40.889C12.484 37.743 14.369 35.077 16.319 32.547C20.675 27.077 25.811 22.427 31.142 18.051C33.938 20.171 36.603 22.496 38.944 25.162C36.018 26.667 33.482 28.855 31.402 31.452C30.687 32.342 29.907 33.367 29.907 34.598C29.842 36.718 30.817 38.701 31.792 40.478C33.547 43.488 35.822 46.154 38.489 48.273C39.789 49.299 41.284 50.393 42.974 50.598C43.82 50.735 44.404 50.051 44.924 49.436C46.225 47.795 47.46 46.017 48.5 44.171C50.256 49.299 51.621 54.564 52.141 59.966C52.856 58.461 53.181 56.752 53.701 55.179C55.197 49.846 56.237 44.376 56.302 38.838C56.367 34.53 55.717 30.222 55.132 25.983C55.067 25.299 54.872 24.683 54.612 24.068C54.612 22.154 53.897 20.308 53.052 18.598C51.752 15.863 49.931 13.402 47.785 11.35C47.2 10.53 46.355 9.983 45.705 9.23Z" fill="#607BAC" stroke="#607BAC" stroke-width="0.047"/>
<path d="M44.34 9.436C47.461 11.829 49.867 15.043 51.882 18.462C52.727 20.034 53.637 21.675 53.507 23.522C53.442 26.803 52.337 29.88 51.297 32.957C50.257 29.538 48.567 26.257 46.226 23.658C45.836 23.248 45.316 22.632 44.666 22.906C42.716 23.385 40.83 24.273 39.14 25.368L39.01 25.231C36.67 22.564 34.069 20.239 31.208 18.12V17.914C33.938 16.068 36.539 14.017 39.335 12.308C40.96 11.214 42.779 10.598 44.34 9.436Z" fill="#A92B3A" stroke="#A92B3A" stroke-width="0.047"/>
<path d="M39.2041 25.3C40.9591 24.273 42.7801 23.385 44.7301 22.838C45.3801 22.564 45.8351 23.179 46.2901 23.59C48.6311 26.256 50.3211 29.47 51.3621 32.889C50.5161 35.282 49.4121 37.539 48.3061 39.795C46.0961 34.461 42.8451 29.676 39.2041 25.3Z" fill="#DD2526" stroke="#DD2526" stroke-width="0.047"/>
<path d="M54.6769 24C54.9369 24.615 55.1319 25.3 55.1969 25.915C55.7819 30.154 56.3669 34.462 56.3669 38.769C56.3019 44.308 55.2619 49.846 53.7669 55.111C53.3109 56.752 52.9209 58.393 52.2069 59.897C51.6859 54.496 50.3209 49.231 48.5649 44.103C51.9459 38.017 54.2869 31.11 54.6769 24Z" fill="#374180" stroke="#374180" stroke-width="0.047"/>
<path d="M56.5629 51.897C57.4079 48.342 57.6029 44.717 58.0579 41.162C58.3179 46.906 58.2529 52.718 57.4079 58.393C57.0829 60.171 56.6279 61.88 56.5629 63.658L56.4329 63.795C55.2629 63.863 54.0929 63.863 52.9219 63.795C54.2869 59.897 55.7829 56 56.5629 51.897Z" fill="#7394BF" stroke="#7394BF" stroke-width="0.047"/>
<path d="M6.82717 66.53H12.1582V67.419H8.06217V68.649H10.4682C10.4682 68.992 10.4032 69.265 10.4032 69.607H8.06317V70.974H12.2232V71.932H6.82717V66.53ZM13.3292 66.53H19.1792V72H17.9452V67.624H14.4992V72.068C14.1092 72.068 13.6542 72.068 13.2642 72C13.3942 70.085 13.3292 68.308 13.3292 66.53ZM22.7562 66.462C22.9512 66.462 23.4062 66.462 23.6012 66.53C24.5762 68.308 25.5512 70.154 26.5912 71.932H25.2272C24.5112 70.632 23.7972 69.333 23.1472 68.034C22.3662 69.265 21.7812 70.632 21.1312 71.932H19.8952C20.8052 70.154 21.7812 68.308 22.7562 66.462ZM27.4362 66.598C28.8022 66.325 30.2322 66.53 31.5972 66.462C32.1822 66.53 33.0932 66.256 33.3532 67.077C33.4832 68.445 33.4832 69.88 33.3532 71.317C33.1582 72 32.4432 71.932 31.9232 71.932C30.6232 71.932 29.2572 72 27.9572 71.932C27.6322 71.863 27.0472 71.795 27.1112 71.316C27.0472 69.812 26.7212 68.171 27.3062 66.736L27.4362 66.598ZM28.1522 67.418V70.974H32.1172C32.1822 69.7899 32.1822 68.6031 32.1172 67.419L28.1522 67.418ZM34.7182 66.53H40.1782C39.9842 66.872 39.9842 67.555 39.4642 67.419C38.2942 67.487 37.1242 67.419 35.9532 67.419C35.9532 67.761 35.9532 68.376 35.8882 68.649C37.1882 68.718 38.5542 68.513 39.8542 68.718C40.5692 69.197 40.2442 70.222 40.3092 70.906C40.3742 71.453 39.9192 71.863 39.4642 71.863C37.9042 71.932 36.3442 71.863 34.7182 71.932V66.53ZM35.8882 69.538C35.8882 70.018 35.8882 70.496 35.9532 70.974H39.0092C39.0092 70.496 39.3992 69.949 39.0742 69.607C38.0342 69.47 36.9282 69.538 35.8882 69.538ZM43.8852 66.53C44.2752 66.53 44.6652 66.461 45.0552 66.461C46.0952 68.239 47.0702 70.154 48.1102 71.931H46.7452C46.5502 71.521 46.3552 71.111 46.0952 70.769H42.7792C42.5842 71.179 42.3892 71.589 42.1292 72C41.8042 72 41.2192 72 40.9592 71.932C41.9988 70.1669 42.9747 68.3651 43.8852 66.53ZM43.3652 69.744H45.6402C45.2502 68.992 44.9252 68.308 44.5352 67.556C44.0802 68.308 43.6902 68.992 43.3652 69.744ZM51.1022 66.462C51.4922 66.53 52.0122 66.325 52.2072 66.872C53.1822 68.582 54.0272 70.291 55.0022 71.932H53.6372C52.9222 70.632 52.2722 69.333 51.6222 68.034C50.7772 69.197 50.3222 70.564 49.6062 71.794C49.2162 71.932 48.7612 71.932 48.3712 71.932C49.2162 70.154 50.2582 68.308 51.1022 66.462ZM57.9282 66.53H59.1632C60.1382 68.376 61.1132 70.154 62.1532 71.932C61.6992 71.932 61.2432 71.932 60.8532 72C60.6582 71.59 60.3982 71.18 60.2032 70.77C59.0982 70.77 57.9932 70.7 56.8882 70.77C56.6932 71.18 56.4982 71.521 56.3032 71.932C55.9782 71.932 55.3932 71.932 55.0672 72C55.9813 70.1564 56.9349 68.3327 57.9272 66.53H57.9282ZM57.3432 69.744C58.1232 69.744 58.8382 69.812 59.6182 69.744C59.3115 69.0184 58.9643 68.3106 58.5782 67.624C58.1277 68.3073 57.7154 69.0151 57.3432 69.744ZM62.8702 66.53H64.0402V68.65H67.8752V66.53C68.2002 66.53 68.7852 66.53 69.1102 66.598V72C68.7852 72 68.2002 72.068 67.8752 72.068V69.744H64.0402V72.068H62.8702C62.8702 70.154 62.9352 68.308 62.8702 66.53ZM70.6042 66.667C72.0342 66.393 73.5302 66.53 74.9602 66.53C75.8052 66.393 76.0002 67.487 75.9352 68.17C75.6102 68.513 75.1552 68.376 74.7652 68.513V67.487C73.6602 67.419 72.6202 67.419 71.5152 67.556V70.974C72.6202 71.043 73.6602 71.043 74.7652 71.043C74.7652 70.633 74.8302 70.223 74.8302 69.812C75.0902 69.88 75.6752 70.017 76.0002 70.085C75.9352 70.632 76.0652 71.248 75.7402 71.727C75.0252 72.137 74.1802 71.932 73.4002 72C72.4902 71.932 71.5142 72.137 70.6702 71.795C70.1502 71.043 70.4102 70.085 70.3442 69.197C70.3442 68.307 70.0842 67.35 70.6042 66.667ZM0.326172 66.667C2.27617 66.393 4.29217 66.598 6.30717 66.53V67.419C5.52717 67.419 4.68217 67.487 3.90217 67.487V72H2.73217V67.42C1.95217 67.42 1.17217 67.488 0.326172 67.488V66.667Z" fill="#5975A6" stroke="#5975A6" stroke-width="0.047"/>
</g>
</g>
</g>
<defs>
<clipPath id="clip0_22002_1345">
<rect width="76" height="72" fill="white"/>
</clipPath>
<clipPath id="clip1_22002_1345">
<rect width="76" height="72" fill="white"/>
</clipPath>
<clipPath id="clip2_22002_1345">
<rect width="76" height="72" fill="white"/>
</clipPath>
</defs>
</svg>
