<svg width="76" height="65" viewBox="0 0 76 65" fill="none" xmlns="http://www.w3.org/2000/svg">
<path d="M38.1303 1H39.4303C43.2663 1.41 46.3863 4.077 49.1823 6.607C47.2323 7.359 45.2163 8.043 43.4613 9.137L45.4113 10.367C43.8513 11.461 42.0313 12.145 40.4053 13.239C37.6103 14.949 35.0093 17.069 32.2793 18.846C31.6943 18.367 30.9793 18.026 30.3293 17.616C26.8173 19.803 23.6973 22.538 20.7713 25.479C17.5213 28.761 14.4013 32.248 11.8003 36.145C10.7603 37.786 9.72029 39.495 9.39429 41.479C9.06929 43.803 9.26429 46.333 10.6293 48.316C14.7903 54.402 19.6663 59.872 25.1273 64.726C23.2423 64.795 21.3573 64.726 19.4713 64.726C17.1313 62.402 14.9853 59.872 12.7103 57.479C10.1743 54.675 7.57429 52.009 5.16829 49.137C3.54329 47.086 1.91829 44.966 1.33329 42.367C1.33329 42.367 1.07329 41.274 1.00729 40.111C0.942291 38.675 1.33329 37.308 1.33329 37.308C1.72329 35.393 2.63329 33.684 3.73829 32.111C6.07829 28.692 8.87429 25.752 11.6703 22.812C18.3003 16.042 25.0623 9.41 32.4743 3.53C34.0993 2.3 36.0493 1.274 38.1303 1Z" fill="#DD2526" stroke="#DD2526" stroke-width="0.047"/>
<path d="M46.7113 10.23C48.0763 9.54696 49.5713 9.06796 51.0013 8.65796C54.4473 11.667 57.6333 15.018 60.8843 18.231C65.3043 22.811 69.7903 27.393 73.3663 32.726C74.3413 34.094 75.1863 35.598 75.5763 37.308C76.2923 40.111 76.0323 43.325 74.3413 45.718C72.4563 48.179 70.6363 50.709 68.3613 52.829C67.7103 48.453 66.4103 44.214 64.3943 40.316C64.8503 44.692 65.6303 49.206 64.8503 53.65C64.5903 55.017 64.4603 56.521 63.4843 57.615C61.4693 59.94 59.5183 62.402 57.3733 64.658C57.4383 62.88 57.8933 61.171 58.2183 59.393C59.0633 53.718 59.1283 47.906 58.8683 42.163C58.4133 45.786 58.2183 49.41 57.3733 52.897C56.5933 57 55.0333 60.897 53.6673 64.795H30.0673C28.9623 64.932 28.1173 64.111 27.2723 63.495C22.5263 59.803 18.2353 55.359 14.9203 50.162C13.4903 47.701 11.9943 44.829 12.7103 41.889C13.4903 38.743 15.3753 36.077 17.3253 33.547C21.6813 28.077 26.8173 23.427 32.1483 19.051C34.9443 21.171 37.6093 23.496 39.9503 26.162C37.0243 27.667 34.4883 29.855 32.4083 32.452C31.6933 33.342 30.9133 34.367 30.9133 35.598C30.8483 37.718 31.8233 39.701 32.7983 41.478C34.5533 44.488 36.8283 47.154 39.4953 49.273C40.7953 50.299 42.2903 51.393 43.9803 51.598C44.8263 51.735 45.4103 51.051 45.9303 50.436C47.2313 48.795 48.4663 47.017 49.5063 45.171C51.2623 50.299 52.6273 55.564 53.1473 60.966C53.8623 59.461 54.1873 57.752 54.7073 56.179C56.2033 50.846 57.2433 45.376 57.3083 39.838C57.3733 35.53 56.7233 31.222 56.1383 26.983C56.0733 26.299 55.8783 25.683 55.6183 25.068C55.6183 23.154 54.9033 21.308 54.0583 19.598C52.7583 16.863 50.9373 14.402 48.7913 12.35C48.2063 11.53 47.3613 10.983 46.7113 10.23Z" fill="#607BAC" stroke="#607BAC" stroke-width="0.047"/>
<path d="M45.3464 10.436C48.4674 12.829 50.8734 16.043 52.8884 19.462C53.7334 21.034 54.6434 22.675 54.5134 24.522C54.4484 27.803 53.3434 30.88 52.3034 33.957C51.2634 30.538 49.5734 27.257 47.2324 24.658C46.8424 24.248 46.3224 23.632 45.6724 23.906C43.7224 24.385 41.8364 25.273 40.1464 26.368L40.0164 26.231C37.6764 23.564 35.0754 21.239 32.2144 19.12V18.914C34.9444 17.068 37.5454 15.017 40.3414 13.308C41.9664 12.214 43.7854 11.598 45.3464 10.436Z" fill="#A92B3A" stroke="#A92B3A" stroke-width="0.047"/>
<path d="M40.2103 26.3001C41.9653 25.2731 43.7863 24.3851 45.7363 23.8381C46.3863 23.5641 46.8413 24.1791 47.2963 24.5901C49.6373 27.2561 51.3273 30.4701 52.3683 33.8891C51.5223 36.2821 50.4183 38.5391 49.3123 40.7951C47.1023 35.4611 43.8513 30.6761 40.2103 26.3001Z" fill="#DD2526" stroke="#DD2526" stroke-width="0.047"/>
<path d="M55.6833 25C55.9433 25.615 56.1383 26.3 56.2033 26.915C56.7883 31.154 57.3733 35.462 57.3733 39.769C57.3083 45.308 56.2683 50.846 54.7733 56.111C54.3173 57.752 53.9273 59.393 53.2133 60.897C52.6923 55.496 51.3273 50.231 49.5713 45.103C52.9523 39.017 55.2933 32.11 55.6833 25Z" fill="#374180" stroke="#374180" stroke-width="0.047"/>
<path d="M57.5693 52.8971C58.4143 49.3421 58.6093 45.7171 59.0643 42.1621C59.3243 47.9061 59.2593 53.7181 58.4143 59.3931C58.0893 61.1711 57.6343 62.8801 57.5693 64.6581L57.4393 64.7951C56.2693 64.8631 55.0993 64.8631 53.9283 64.7951C55.2933 60.8971 56.7893 57.0001 57.5693 52.8971Z" fill="#7394BF" stroke="#7394BF" stroke-width="0.047"/>
</svg>
