<?xml version="1.0" standalone="no"?>
<!DOCTYPE svg PUBLIC "-//W3C//DTD SVG 20010904//EN"
 "http://www.w3.org/TR/2001/REC-SVG-20010904/DTD/svg10.dtd">
<svg version="1.0" xmlns="http://www.w3.org/2000/svg"
 width="608.000000pt" height="608.000000pt" viewBox="0 0 608.000000 608.000000"
 preserveAspectRatio="xMidYMid meet">
<metadata>
Created by potrace 1.14, written by Peter Selinger 2001-2017
</metadata>
<g transform="translate(0.000000,608.000000) scale(0.100000,-0.100000)"
fill="#000000" stroke="none">
<path d="M3047 5563 c-1 -1 -16 -4 -32 -7 -17 -2 -30 -5 -30 -6 0 -1 -11 -3
-24 -6 -30 -5 -200 -73 -215 -85 -6 -5 -47 -32 -91 -61 -44 -29 -82 -55 -85
-58 -3 -3 -27 -24 -55 -45 -49 -40 -87 -71 -131 -110 -12 -11 -37 -31 -54 -45
-17 -14 -42 -34 -54 -45 -13 -11 -51 -45 -86 -75 -35 -30 -74 -64 -86 -75 -12
-11 -52 -47 -89 -79 -77 -69 -92 -83 -244 -224 -173 -162 -209 -197 -436 -422
-319 -316 -621 -628 -715 -740 -11 -14 -33 -38 -49 -55 -50 -54 -215 -268
-277 -360 -72 -107 -114 -182 -139 -250 -10 -27 -23 -56 -28 -62 -5 -7 -7 -13
-4 -13 3 0 1 -15 -4 -32 -6 -18 -12 -42 -14 -53 -3 -11 -8 -33 -11 -50 -24
-108 -17 -253 18 -380 6 -22 13 -47 14 -55 2 -8 17 -43 34 -78 16 -34 30 -65
30 -68 0 -13 154 -235 195 -280 5 -7 26 -31 45 -55 29 -36 159 -186 195 -225
5 -6 55 -59 110 -119 55 -59 114 -123 130 -141 17 -17 68 -73 115 -124 46 -51
100 -109 120 -129 19 -21 69 -75 110 -121 92 -102 183 -200 275 -297 l70 -73
222 -2 c123 -1 225 1 228 4 3 2 -30 36 -73 74 -97 87 -385 375 -477 478 -38
43 -81 90 -95 106 -14 15 -34 38 -45 51 -28 34 -107 130 -125 152 -8 11 -20
24 -25 31 -6 6 -26 31 -45 56 -19 25 -40 51 -47 58 -7 7 -13 17 -13 21 0 4 -8
16 -18 27 -33 36 -112 144 -112 153 0 5 -4 11 -8 13 -8 3 -95 127 -98 138 0 3
-12 30 -26 60 -39 86 -53 171 -51 310 2 149 27 248 97 384 115 221 373 559
651 851 17 18 53 56 81 86 143 150 400 390 496 461 20 15 42 34 50 41 24 24
181 136 279 199 26 17 28 16 100 -28 41 -25 76 -47 77 -49 5 -5 -25 -33 -83
-80 -28 -22 -57 -47 -65 -55 -8 -9 -28 -26 -45 -39 -16 -12 -57 -47 -90 -76
-33 -30 -71 -63 -85 -75 -152 -130 -491 -463 -610 -599 -36 -41 -76 -87 -90
-102 -14 -15 -38 -45 -55 -65 -16 -21 -41 -51 -55 -68 -177 -218 -318 -460
-373 -641 -34 -113 -31 -254 8 -375 28 -88 120 -283 136 -288 5 -2 9 -10 9
-17 0 -8 18 -40 40 -72 22 -32 46 -66 53 -77 109 -163 301 -391 477 -566 141
-141 413 -377 478 -415 18 -11 32 -22 32 -26 0 -4 19 -15 42 -25 40 -16 106
-18 1017 -18 l973 -1 11 25 c35 87 215 614 220 645 1 11 5 25 9 30 3 6 9 27
13 48 4 20 12 40 17 43 6 4 8 -1 5 -12 -4 -11 -17 -60 -31 -110 -14 -50 -51
-165 -81 -255 -31 -90 -57 -168 -59 -174 -2 -5 -8 -23 -14 -38 -7 -16 -12 -31
-12 -35 0 -4 -13 -42 -29 -84 -24 -64 -26 -78 -14 -82 21 -8 245 -6 266 3 10
4 18 11 18 16 0 9 55 75 146 175 34 37 45 50 103 120 19 24 45 53 58 66 12 13
22 26 22 29 0 3 8 13 18 23 36 37 96 109 132 157 49 66 68 123 95 278 3 15 7
39 10 55 30 167 22 535 -20 846 -2 17 -6 55 -10 84 -3 29 -6 56 -6 60 -7 44
16 2 88 -163 36 -82 143 -393 147 -430 1 -11 5 -27 9 -35 3 -8 11 -40 17 -70
5 -30 13 -66 15 -80 3 -14 10 -50 16 -80 19 -109 13 -105 67 -51 72 73 123
130 176 196 27 33 52 62 55 65 10 9 186 243 217 290 25 36 76 147 79 170 1 3
4 19 8 35 4 17 10 41 13 55 12 54 11 231 -2 301 -8 41 -17 88 -20 104 -13 68
-130 306 -164 335 -3 3 -21 29 -40 58 -18 28 -37 52 -42 52 -4 0 -8 5 -8 12 0
12 -45 74 -157 213 -26 33 -55 69 -63 79 -8 10 -37 44 -63 75 -27 31 -58 67
-70 81 -223 260 -1111 1160 -1330 1347 l-26 22 -81 -24 c-78 -23 -247 -89
-258 -100 -3 -3 28 -39 69 -79 118 -117 216 -223 272 -295 65 -81 127 -169
127 -178 0 -3 11 -21 26 -40 14 -18 21 -33 17 -33 -4 0 -3 -4 3 -8 17 -11 120
-229 148 -315 14 -43 29 -99 33 -125 13 -87 7 -298 -12 -392 -3 -14 -8 -47
-11 -75 -4 -27 -8 -53 -10 -56 -2 -4 -6 -24 -10 -45 -12 -84 -108 -432 -141
-514 -3 -8 -7 -19 -9 -25 -5 -19 -82 -210 -104 -260 -57 -127 -176 -361 -187
-368 -7 -4 -13 -12 -13 -18 0 -16 -191 -301 -236 -351 -13 -15 -24 -30 -24
-33 0 -11 -69 -74 -98 -89 -107 -55 -361 91 -629 364 -102 104 -303 368 -303
398 0 6 -4 12 -8 14 -13 5 -98 177 -125 254 -34 96 -55 257 -38 289 3 6 6 12
6 15 2 14 18 56 24 60 3 3 13 17 21 32 57 101 264 318 410 430 83 63 236 158
256 158 15 0 86 -83 178 -205 37 -49 73 -97 79 -105 39 -49 87 -121 87 -129 0
-5 3 -11 8 -13 36 -15 290 -462 363 -638 12 -30 26 -59 30 -64 14 -16 212 419
252 554 6 19 11 37 12 40 1 3 4 12 8 20 3 8 15 47 27 85 12 39 24 77 27 85 9
23 41 136 49 175 56 251 61 398 18 525 -18 52 -90 203 -115 240 -9 14 -47 72
-85 130 -37 58 -74 111 -81 118 -7 7 -20 26 -30 42 -9 17 -21 30 -25 30 -4 0
-8 6 -8 14 0 8 -4 16 -9 18 -5 2 -25 23 -46 48 -49 61 -167 180 -228 232 -28
24 -61 53 -73 65 -13 12 -50 38 -84 59 -33 20 -60 40 -60 45 0 12 213 112 330
154 58 21 107 40 110 42 7 6 -116 118 -189 173 -18 14 -38 30 -45 36 -23 22
-161 111 -217 142 -74 40 -191 81 -264 94 -54 9 -164 16 -168 11z m1663 -3413
c0 -16 -4 -30 -8 -30 -5 0 -7 14 -4 30 2 17 6 30 8 30 2 0 4 -13 4 -30z m-4
-57 c-3 -10 -7 -33 -8 -50 -1 -18 -6 -33 -10 -33 -4 0 -6 10 -4 23 3 12 5 34
5 50 1 15 6 27 12 27 6 0 8 -8 5 -17z m-16 -123 c0 -16 -4 -30 -9 -30 -5 0 -8
8 -6 18 2 9 4 23 4 30 2 26 11 11 11 -18z m-6 -62 c-2 -13 -6 -41 -9 -63 -4
-43 -13 -105 -20 -145 -3 -14 -7 -48 -10 -76 -3 -28 -8 -61 -10 -75 -3 -13 -8
-40 -11 -59 -6 -37 -11 -46 -19 -39 -2 3 0 20 5 39 5 18 14 69 20 114 6 45 13
91 15 102 2 12 7 48 11 80 4 33 9 62 10 67 1 4 2 23 3 42 0 19 5 35 10 35 6 0
8 -10 5 -22z m-80 -500 c-4 -18 -10 -51 -16 -73 -5 -22 -10 -45 -11 -52 -2 -7
-7 -16 -11 -20 -5 -4 -6 6 -1 22 4 17 8 37 10 45 2 8 8 34 13 57 5 23 7 44 4
48 -3 3 0 5 6 5 8 0 9 -11 6 -32z"/>
</g>
</svg>
