<svg width="149" height="150" viewBox="0 0 149 150" fill="none" xmlns="http://www.w3.org/2000/svg">
<rect x="1" y="1" width="147" height="148" rx="73.5" stroke="white" stroke-width="2"/>
<path d="M98.5112 48.5056V40.3589C98.5112 39.3757 99.2838 38.533 100.337 38.533H105.464C106.447 38.533 107.29 39.3055 107.29 40.3589V49.84" stroke="white" stroke-width="2.5537" stroke-miterlimit="10" stroke-linecap="round" stroke-linejoin="round"/>
<path d="M52.0889 80.6711C54.7576 70.0663 63.6066 61.8494 74.5625 60.0936" stroke="white" stroke-width="2.5537" stroke-miterlimit="10" stroke-linecap="round" stroke-linejoin="round"/>
<path d="M106.447 91.9781C104.691 102.934 96.4744 111.713 85.8696 114.452" stroke="white" stroke-width="2.5537" stroke-miterlimit="10" stroke-linecap="round" stroke-linejoin="round"/>
<path d="M82.8494 87.4835C82.8494 88.8179 81.7959 89.8714 80.4616 89.8714C79.1272 89.8714 78.0737 88.8179 78.0737 87.4835C78.0737 86.1492 79.1272 85.0957 80.4616 85.0957C81.7959 85.0957 82.8494 86.1492 82.8494 87.4835Z" stroke="white" stroke-width="2.5537" stroke-miterlimit="10" stroke-linecap="round" stroke-linejoin="round"/>
<path d="M80.4619 77.8619V67.6083" stroke="white" stroke-width="2.5537" stroke-miterlimit="10" stroke-linecap="round" stroke-linejoin="round"/>
<path d="M82.6384 69.4343L80.4613 71.6115L78.2842 69.4343" stroke="white" stroke-width="2.5537" stroke-miterlimit="10" stroke-linecap="round" stroke-linejoin="round"/>
<path d="M83.9031 71.6816L80.4618 75.1229L77.0205 71.6816" stroke="white" stroke-width="2.5537" stroke-miterlimit="10" stroke-linecap="round" stroke-linejoin="round"/>
<path d="M80.4616 82.4269L78.9868 80.1093L80.4616 77.8619L81.8662 80.1093L80.4616 82.4269Z" stroke="white" stroke-width="2.5537" stroke-miterlimit="10" stroke-linecap="round" stroke-linejoin="round"/>
<path d="M80.4619 82.4269V85.0956" stroke="white" stroke-width="2.5537" stroke-miterlimit="10" stroke-linecap="round" stroke-linejoin="round"/>
<path d="M87.2744 80.6711L94.5081 73.4374" stroke="white" stroke-width="2.5537" stroke-miterlimit="10" stroke-linecap="round" stroke-linejoin="round"/>
<path d="M94.7186 76.2466H91.6987V73.2267" stroke="white" stroke-width="2.5537" stroke-miterlimit="10" stroke-linecap="round" stroke-linejoin="round"/>
<path d="M94.0158 78.775H89.1699V73.9291" stroke="white" stroke-width="2.5537" stroke-miterlimit="10" stroke-linecap="round" stroke-linejoin="round"/>
<path d="M84.0435 83.9017L84.6053 81.233L87.2741 80.6711L86.7122 83.3399L84.0435 83.9017Z" stroke="white" stroke-width="2.5537" stroke-miterlimit="10" stroke-linecap="round" stroke-linejoin="round"/>
<path d="M84.0432 83.9016L82.147 85.7978" stroke="white" stroke-width="2.5537" stroke-miterlimit="10" stroke-linecap="round" stroke-linejoin="round"/>
<path d="M90.0835 87.4835H100.337" stroke="white" stroke-width="2.5537" stroke-miterlimit="10" stroke-linecap="round" stroke-linejoin="round"/>
<path d="M98.5106 89.6605L96.3335 87.4834L98.5106 85.3063" stroke="white" stroke-width="2.5537" stroke-miterlimit="10" stroke-linecap="round" stroke-linejoin="round"/>
<path d="M96.2636 90.9248L92.8223 87.4835L96.2636 84.0422" stroke="white" stroke-width="2.5537" stroke-miterlimit="10" stroke-linecap="round" stroke-linejoin="round"/>
<path d="M85.5181 87.4835L87.8357 86.0789L90.083 87.4835L87.8357 88.9583L85.5181 87.4835Z" stroke="white" stroke-width="2.5537" stroke-miterlimit="10" stroke-linecap="round" stroke-linejoin="round"/>
<path d="M85.5183 87.4835H82.8496" stroke="white" stroke-width="2.5537" stroke-miterlimit="10" stroke-linecap="round" stroke-linejoin="round"/>
<path d="M87.2744 94.3661L94.5081 101.53" stroke="white" stroke-width="2.5537" stroke-miterlimit="10" stroke-linecap="round" stroke-linejoin="round"/>
<path d="M91.6987 101.81V98.7203H94.7186" stroke="white" stroke-width="2.5537" stroke-miterlimit="10" stroke-linecap="round" stroke-linejoin="round"/>
<path d="M89.1699 101.108V96.2623H94.0158" stroke="white" stroke-width="2.5537" stroke-miterlimit="10" stroke-linecap="round" stroke-linejoin="round"/>
<path d="M84.0435 91.1354L86.7122 91.6972L87.2741 94.366L84.6053 93.7339L84.0435 91.1354Z" stroke="white" stroke-width="2.5537" stroke-miterlimit="10" stroke-linecap="round" stroke-linejoin="round"/>
<path d="M84.0432 91.1354L82.147 89.1689" stroke="white" stroke-width="2.5537" stroke-miterlimit="10" stroke-linecap="round" stroke-linejoin="round"/>
<path d="M80.4619 97.1753V107.359" stroke="white" stroke-width="2.5537" stroke-miterlimit="10" stroke-linecap="round" stroke-linejoin="round"/>
<path d="M78.2842 105.603L80.4613 103.426L82.6384 105.603" stroke="white" stroke-width="2.5537" stroke-miterlimit="10" stroke-linecap="round" stroke-linejoin="round"/>
<path d="M77.0205 103.285L80.4618 99.844L83.9031 103.285" stroke="white" stroke-width="2.5537" stroke-miterlimit="10" stroke-linecap="round" stroke-linejoin="round"/>
<path d="M80.4616 92.6102L81.8662 94.8576L80.4616 97.1752L78.9868 94.8576L80.4616 92.6102Z" stroke="white" stroke-width="2.5537" stroke-miterlimit="10" stroke-linecap="round" stroke-linejoin="round"/>
<path d="M80.4619 92.6102V89.8712" stroke="white" stroke-width="2.5537" stroke-miterlimit="10" stroke-linecap="round" stroke-linejoin="round"/>
<path d="M80.4619 77.862L84.8162 77.3704L87.2742 80.6712" stroke="white" stroke-width="2.5537" stroke-miterlimit="10" stroke-linecap="round" stroke-linejoin="round"/>
<path d="M87.2744 80.6711L90.7157 83.4101L90.0836 87.4835" stroke="white" stroke-width="2.5537" stroke-miterlimit="10" stroke-linecap="round" stroke-linejoin="round"/>
<path d="M90.0836 87.4835L90.5752 91.908L87.2744 94.3661" stroke="white" stroke-width="2.5537" stroke-miterlimit="10" stroke-linecap="round" stroke-linejoin="round"/>
<path d="M87.2742 94.3661L84.5353 97.8074L80.4619 97.1753" stroke="white" stroke-width="2.5537" stroke-miterlimit="10" stroke-linecap="round" stroke-linejoin="round"/>
<path d="M76.3883 106.165L72.6662 101.459L67.0477 103.636L66.205 97.6668L60.2354 96.8241L62.4125 91.2759L57.7773 87.4834L62.4125 83.7612L60.2354 78.2131L66.205 77.3001L67.0477 71.4007L72.6662 73.5779L76.3883 68.8724" stroke="white" stroke-width="2.5537" stroke-miterlimit="10" stroke-linecap="round" stroke-linejoin="round"/>
<path d="M76.3887 98.299C70.4191 98.299 65.5732 93.4531 65.5732 87.4835C65.5732 81.514 70.4191 76.6681 76.3887 76.6681" stroke="white" stroke-width="2.5537" stroke-miterlimit="10" stroke-linecap="round" stroke-linejoin="round"/>
<path d="M69.7168 86.0087C70.2084 83.9017 71.613 82.2162 73.5092 81.3032" stroke="white" stroke-width="2.5537" stroke-miterlimit="10" stroke-linecap="round" stroke-linejoin="round"/>
<path d="M46.4004 86.781V71.6113" stroke="white" stroke-width="2.5537" stroke-miterlimit="10" stroke-linecap="round" stroke-linejoin="round"/>
<path d="M120.353 70.3472L80.5325 30.5267C79.8302 29.8244 78.7065 29.8244 78.0042 30.5267L38.7455 69.7854C38.3944 70.1366 38.2539 70.5579 38.2539 71.0496V74.9122C38.2539 76.5275 40.2203 77.3 41.344 76.1764L78.7065 38.8139C79.0576 38.4627 79.6195 38.4627 79.9706 38.8139L111.434 71.8923C111.925 72.3839 112.206 73.0862 112.206 73.7183V118.174C112.206 119.157 111.434 120 110.38 120H48.2266C47.2434 120 46.4006 119.227 46.4006 118.174V114.382" stroke="white" stroke-width="2.5537" stroke-miterlimit="10" stroke-linecap="round" stroke-linejoin="round"/>
<path d="M28 90.8545C31.1604 90.8545 31.1604 94.0851 34.3207 94.0851C37.4811 94.0851 37.4811 90.8545 40.6414 90.8545C43.8018 90.8545 43.8018 94.0851 46.9622 94.0851C50.1225 94.0851 50.1225 90.8545 53.2829 90.8545" stroke="white" stroke-width="2.5537" stroke-miterlimit="10" stroke-linecap="round" stroke-linejoin="round"/>
<path d="M28 97.8774C31.1604 97.8774 31.1604 101.108 34.3207 101.108C37.4811 101.108 37.4811 97.8774 40.6414 97.8774C43.8018 97.8774 43.8018 101.108 46.9622 101.108C50.1225 101.108 50.1225 97.8774 53.2829 97.8774" stroke="white" stroke-width="2.5537" stroke-miterlimit="10" stroke-linecap="round" stroke-linejoin="round"/>
<path d="M28 104.83C31.1604 104.83 31.1604 108.061 34.3207 108.061C37.4811 108.061 37.4811 104.83 40.6414 104.83C43.8018 104.83 43.8018 108.061 46.9622 108.061C50.1225 108.061 50.1225 104.83 53.2829 104.83" stroke="white" stroke-width="2.5537" stroke-miterlimit="10" stroke-linecap="round" stroke-linejoin="round"/>
</svg>
