<svg width="506" height="255" viewBox="0 0 506 255" fill="none" xmlns="http://www.w3.org/2000/svg">
<path d="M445.372 200.8C433.905 200.8 423.639 198 414.572 192.4C405.505 186.667 398.372 178.4 393.172 167.6C387.972 156.8 385.372 143.733 385.372 128.4C385.372 113.067 387.972 100 393.172 89.2C398.372 78.4 405.505 70.2 414.572 64.6C423.639 58.8667 433.905 56 445.372 56C456.972 56 467.239 58.8667 476.172 64.6C485.239 70.2 492.372 78.4 497.572 89.2C502.772 100 505.372 113.067 505.372 128.4C505.372 143.733 502.772 156.8 497.572 167.6C492.372 178.4 485.239 186.667 476.172 192.4C467.239 198 456.972 200.8 445.372 200.8ZM445.372 173.4C450.839 173.4 455.572 171.867 459.572 168.8C463.705 165.733 466.905 160.867 469.172 154.2C471.572 147.533 472.772 138.933 472.772 128.4C472.772 117.867 471.572 109.267 469.172 102.6C466.905 95.9333 463.705 91.0667 459.572 88C455.572 84.9333 450.839 83.4 445.372 83.4C440.039 83.4 435.305 84.9333 431.172 88C427.172 91.0667 423.972 95.9333 421.572 102.6C419.305 109.267 418.172 117.867 418.172 128.4C418.172 138.933 419.305 147.533 421.572 154.2C423.972 160.867 427.172 165.733 431.172 168.8C435.305 171.867 440.039 173.4 445.372 173.4Z" fill="#363636"/>
<path d="M54.027 200.8C44.2936 200.8 34.627 199.533 25.027 197C15.5603 194.333 7.42695 190.6 0.626953 185.8L13.427 161C18.7603 164.867 24.8936 167.933 31.827 170.2C38.8936 172.467 46.027 173.6 53.227 173.6C61.3603 173.6 67.7603 172 72.427 168.8C77.0936 165.6 79.427 161.133 79.427 155.4C79.427 151.8 78.4936 148.6 76.627 145.8C74.7603 143 71.427 140.867 66.627 139.4C61.9603 137.933 55.3603 137.2 46.827 137.2H11.027L18.227 58.4H103.627V84.4H29.827L46.627 69.6L41.627 125.8L24.827 111H54.427C68.2936 111 79.427 112.933 87.827 116.8C96.3603 120.533 102.56 125.667 106.427 132.2C110.294 138.733 112.227 146.133 112.227 154.4C112.227 162.667 110.16 170.333 106.027 177.4C101.894 184.333 95.4936 190 86.827 194.4C78.2936 198.667 67.3603 200.8 54.027 200.8Z" fill="#363636"/>
<path d="M249.184 1H254.329C269.511 2.62208 281.86 13.1735 292.926 23.1829C285.208 26.1581 277.229 28.8642 270.283 33.1924L278.001 38.0586C271.827 42.3868 264.623 45.0929 258.188 49.4211C247.126 56.1864 236.831 64.5737 226.026 71.6041C223.711 69.709 220.881 68.3599 218.308 66.7378C204.408 75.3902 192.06 86.2107 180.479 97.8462C167.616 110.831 155.267 124.626 144.973 140.044C140.857 146.536 136.74 153.298 135.45 161.147C134.164 170.341 134.936 180.351 140.338 188.196C156.807 212.274 176.105 233.915 197.719 253.119C190.259 253.392 182.798 253.119 175.334 253.119C166.072 243.924 157.579 233.915 148.574 224.448C138.537 213.354 128.247 202.807 118.724 191.444C112.293 183.33 105.861 174.943 103.546 164.66C103.546 164.66 102.517 160.336 102.255 155.735C101.998 150.053 103.546 144.645 103.546 144.645C105.089 137.069 108.691 130.308 113.064 124.084C122.326 110.558 133.392 98.9262 144.458 87.2947C170.699 60.5106 197.462 34.2724 226.798 11.0094C233.23 6.14318 240.947 2.08403 249.184 1Z" fill="#FF2021" stroke="#DD2526" stroke-width="0.047"/>
<path d="M282.95 37.6224C288.346 34.9147 294.255 33.0158 299.908 31.3904C313.53 43.3193 326.125 56.604 338.976 69.3416C356.448 87.4985 374.182 105.663 388.318 126.806C392.172 132.229 395.512 138.191 397.054 144.97C399.884 156.083 398.857 168.824 392.172 178.311C384.72 188.067 377.526 198.097 368.533 206.502C365.959 189.154 360.82 172.349 352.851 156.895C354.654 174.244 357.737 192.139 354.654 209.757C353.626 215.176 353.112 221.139 349.254 225.476C341.289 234.693 333.576 244.453 325.097 253.397C325.354 246.348 327.152 239.573 328.437 232.524C331.778 210.026 332.034 186.985 331.007 164.218C329.208 178.581 328.437 192.948 325.097 206.771C322.014 223.037 315.847 238.487 310.447 253.94H217.155C212.787 254.483 209.447 251.228 206.107 248.786C187.346 234.15 170.383 216.532 157.279 195.929C151.626 186.172 145.712 174.787 148.543 163.131C151.626 150.659 159.077 140.09 166.786 130.06C184.005 108.375 204.308 89.9406 225.382 72.5924C236.434 80.9969 246.969 90.2142 256.223 100.783C244.657 106.75 234.632 115.424 226.409 125.719C223.583 129.248 220.5 133.311 220.5 138.191C220.243 146.596 224.097 154.457 227.951 161.502C234.889 173.435 243.882 184.004 254.425 192.404C259.563 196.472 265.473 200.809 272.154 201.622C275.498 202.165 277.807 199.453 279.862 197.015C285.005 190.51 289.887 183.461 293.998 176.143C300.94 196.472 306.336 217.345 308.391 238.76C311.218 232.794 312.503 226.019 314.558 219.783C320.472 198.641 324.583 176.955 324.84 155C325.097 137.922 322.527 120.843 320.215 104.038C319.958 101.326 319.187 98.8843 318.159 96.4462C318.159 88.8583 315.333 81.54 311.993 74.7609C306.854 63.9183 299.655 54.1619 291.172 46.0269C288.859 42.7761 285.519 40.6076 282.95 37.6224Z" fill="#2955B6" stroke="#607BAC" stroke-width="0.047"/>
<path d="M277.628 38.2282C290.063 47.7358 299.649 60.5052 307.677 74.0891C311.043 80.3348 314.669 86.8546 314.151 94.1928C313.892 107.228 309.489 119.454 305.346 131.679C301.202 118.095 294.469 105.059 285.142 94.7332C283.589 93.1042 281.517 90.6568 278.927 91.7454C271.158 93.6485 263.644 97.1766 256.911 101.527L256.393 100.983C247.07 90.3866 236.707 81.1493 225.309 72.7303V71.9119C236.185 64.5776 246.548 56.4288 257.688 49.6389C264.162 45.2923 271.409 42.8449 277.628 38.2282Z" fill="#2D6BFE" stroke="#A92B3A" stroke-width="0.047"/>
</svg>
