<svg width="514" height="255" viewBox="0 0 514 255" fill="none" xmlns="http://www.w3.org/2000/svg">
<path d="M384.1 168.6V146.8L450.1 58H484.1L419.5 146.8L403.7 142.2H513.9V168.6H384.1ZM459.5 198V168.6L460.5 142.2V116H491.1V198H459.5Z" fill="#363636"/>
<path d="M0.0996094 168.6V146.8L66.0996 58H100.1L35.4996 146.8L19.6996 142.2H129.9V168.6H0.0996094ZM75.4996 198V168.6L76.4996 142.2V116H107.1V198H75.4996Z" fill="#363636"/>
<path d="M252.057 1H257.202C272.384 2.62208 284.733 13.1735 295.799 23.1829C288.081 26.1581 280.102 28.8642 273.156 33.1924L280.874 38.0586C274.7 42.3868 267.497 45.0929 261.061 49.4211C249.999 56.1864 239.704 64.5737 228.899 71.6041C226.584 69.709 223.754 68.3599 221.181 66.7378C207.281 75.3902 194.933 86.2107 183.352 97.8462C170.489 110.831 158.14 124.626 147.846 140.044C143.73 146.536 139.613 153.298 138.323 161.147C137.037 170.341 137.809 180.351 143.211 188.196C159.68 212.274 178.979 233.915 200.593 253.119C193.132 253.392 185.671 253.119 178.207 253.119C168.945 243.924 160.452 233.915 151.448 224.448C141.41 213.354 131.12 202.807 121.597 191.444C115.166 183.33 108.734 174.943 106.419 164.66C106.419 164.66 105.39 160.336 105.128 155.735C104.871 150.053 106.419 144.645 106.419 144.645C107.962 137.069 111.564 130.308 115.937 124.084C125.199 110.558 136.265 98.9262 147.331 87.2947C173.572 60.5106 200.335 34.2724 229.671 11.0094C236.103 6.14318 243.82 2.08403 252.057 1Z" fill="#FF2021" stroke="#DD2526" stroke-width="0.047"/>
<path d="M285.823 37.6224C291.219 34.9147 297.128 33.0158 302.781 31.3904C316.403 43.3193 328.998 56.604 341.849 69.3416C359.321 87.4985 377.055 105.663 391.191 126.806C395.045 132.229 398.385 138.191 399.927 144.97C402.757 156.083 401.73 168.824 395.045 178.311C387.594 188.067 380.399 198.097 371.406 206.502C368.832 189.154 363.693 172.349 355.724 156.895C357.527 174.244 360.61 192.139 357.527 209.757C356.499 215.176 355.985 221.139 352.127 225.476C344.162 234.693 336.449 244.453 327.97 253.397C328.227 246.348 330.026 239.573 331.31 232.524C334.651 210.026 334.908 186.985 333.88 164.218C332.081 178.581 331.31 192.948 327.97 206.771C324.887 223.037 318.72 238.487 313.32 253.94H220.028C215.66 254.483 212.32 251.228 208.98 248.786C190.219 234.15 173.256 216.532 160.152 195.929C154.499 186.172 148.585 174.787 151.416 163.131C154.499 150.659 161.95 140.09 169.659 130.06C186.878 108.375 207.181 89.9406 228.255 72.5924C239.307 80.9969 249.842 90.2142 259.096 100.783C247.53 106.75 237.505 115.424 229.282 125.719C226.456 129.248 223.373 133.311 223.373 138.191C223.116 146.596 226.97 154.457 230.824 161.502C237.762 173.435 246.755 184.004 257.298 192.404C262.437 196.472 268.346 200.809 275.027 201.622C278.371 202.165 280.68 199.453 282.735 197.015C287.878 190.51 292.76 183.461 296.871 176.143C303.813 196.472 309.209 217.345 311.264 238.76C314.091 232.794 315.376 226.019 317.431 219.783C323.345 198.641 327.456 176.955 327.713 155C327.97 137.922 325.4 120.843 323.088 104.038C322.831 101.326 322.06 98.8843 321.032 96.4462C321.032 88.8583 318.206 81.54 314.866 74.7609C309.727 63.9183 302.528 54.1619 294.045 46.0269C291.732 42.7761 288.392 40.6076 285.823 37.6224Z" fill="#2955B6" stroke="#607BAC" stroke-width="0.047"/>
<path d="M280.501 38.2282C292.936 47.7358 302.522 60.5052 310.55 74.0891C313.916 80.3348 317.542 86.8546 317.024 94.1928C316.765 107.228 312.362 119.454 308.219 131.679C304.075 118.095 297.342 105.059 288.015 94.7332C286.462 93.1042 284.39 90.6568 281.8 91.7454C274.031 93.6485 266.517 97.1766 259.784 101.527L259.266 100.983C249.943 90.3866 239.58 81.1493 228.182 72.7303V71.9119C239.058 64.5776 249.421 56.4288 260.561 49.6389C267.035 45.2923 274.282 42.8449 280.501 38.2282Z" fill="#2D6BFE" stroke="#A92B3A" stroke-width="0.047"/>
</svg>
