<svg width="50" height="51" viewBox="0 0 50 51" fill="none" xmlns="http://www.w3.org/2000/svg">
<g clip-path="url(#clip0_5_69)">
<path d="M31.4396 33.8334C45.1271 33.7584 50 26.5084 50 20.2917C49.9987 18.6252 49.4265 17.0093 48.3788 15.7133C47.3311 14.4173 45.871 13.5193 44.2417 13.1688C44.525 12.3626 44.7708 11.623 44.9354 11.0626C45.2991 9.8437 45.3705 8.5563 45.144 7.30468C44.9174 6.05306 44.3992 4.87241 43.6312 3.8584C42.8571 2.81232 41.8476 1.96321 40.6843 1.37977C39.521 0.796335 38.2368 0.494968 36.9354 0.500064H13.0646C11.7632 0.494968 10.4789 0.796335 9.31569 1.37977C8.15244 1.96321 7.14289 2.81232 6.36875 3.8584C5.60085 4.87241 5.08262 6.05306 4.85604 7.30468C4.62946 8.5563 4.7009 9.8437 5.06458 11.0626C5.22917 11.623 5.48125 12.3626 5.75833 13.1688C4.12903 13.5193 2.66894 14.4173 1.6212 15.7133C0.573465 17.0093 0.00130475 18.6252 0 20.2917C0 26.5084 4.87292 33.7584 18.5604 33.8334C18.6821 34.4658 18.7456 35.1081 18.75 35.7521V42.1667C18.7858 42.7232 18.7026 43.2809 18.5058 43.8026C18.3091 44.3244 18.0034 44.7982 17.6091 45.1925C17.2148 45.5868 16.741 45.8925 16.2192 46.0892C15.6975 46.286 15.1398 46.3692 14.5833 46.3334H12.5C11.9475 46.3334 11.4176 46.5529 11.0269 46.9436C10.6362 47.3343 10.4167 47.8642 10.4167 48.4167C10.4167 48.9693 10.6362 49.4992 11.0269 49.8899C11.4176 50.2806 11.9475 50.5001 12.5 50.5001H37.5C38.0525 50.5001 38.5824 50.2806 38.9731 49.8899C39.3638 49.4992 39.5833 48.9693 39.5833 48.4167C39.5833 47.8642 39.3638 47.3343 38.9731 46.9436C38.5824 46.5529 38.0525 46.3334 37.5 46.3334H35.4333C34.8757 46.371 34.3164 46.2891 33.793 46.0933C33.2695 45.8974 32.7939 45.592 32.3979 45.1976C32.0019 44.8032 31.6947 44.3288 31.4967 43.8061C31.2987 43.2834 31.2146 42.7245 31.25 42.1667V35.7501C31.2546 35.1067 31.318 34.4652 31.4396 33.8334ZM42.7083 17.1667C43.5371 17.1667 44.332 17.496 44.918 18.082C45.5041 18.6681 45.8333 19.4629 45.8333 20.2917C45.8333 24.5292 42.4812 29.0417 33.2583 29.6042C33.7196 28.9747 34.2523 28.4007 34.8458 27.8938C38.1667 24.9021 40.8134 21.2385 42.6104 17.1459C42.6437 17.148 42.6729 17.1667 42.7083 17.1667ZM4.16667 20.2917C4.16667 19.4629 4.49591 18.6681 5.08196 18.082C5.66801 17.496 6.46286 17.1667 7.29167 17.1667C7.32708 17.1667 7.35625 17.148 7.38958 17.1459C9.18657 21.2385 11.8333 24.9021 15.1542 27.8938C15.7477 28.4007 16.2804 28.9747 16.7417 29.6042C7.51875 29.0417 4.16667 24.5292 4.16667 20.2917ZM21.9021 46.3334C22.5908 45.0541 22.9401 43.6195 22.9167 42.1667V35.7521C22.9239 33.656 22.4746 31.5834 21.6 29.6784C20.7254 27.7734 19.4465 26.0817 17.8521 24.7209C13.6157 20.6721 10.5742 15.5362 9.06042 9.87506C8.88252 9.27751 8.8483 8.64639 8.96053 8.03311C9.07276 7.41982 9.32827 6.84172 9.70625 6.3459C10.0949 5.82199 10.6014 5.39696 11.1849 5.10524C11.7683 4.81352 12.4123 4.66329 13.0646 4.66673H36.9354C37.5884 4.66425 38.2328 4.81576 38.8163 5.10896C39.3998 5.40216 39.906 5.82879 40.2937 6.35423C40.6717 6.85006 40.9272 7.42816 41.0395 8.04144C41.1517 8.65473 41.1175 9.28585 40.9396 9.8834C39.4243 15.5415 36.383 20.6744 32.1479 24.7209C30.5536 26.0813 29.2747 27.7726 28.4 29.6773C27.5254 31.5819 27.0761 33.6542 27.0833 35.7501V42.1667C27.0598 43.6195 27.4092 45.0541 28.0979 46.3334H21.9021Z" fill="#2D6BFE"/>
</g>
<defs>
<clipPath id="clip0_5_69">
<rect width="50" height="50" fill="white" transform="translate(0 0.5)"/>
</clipPath>
</defs>
</svg>
