<svg width="51" height="51" viewBox="0 0 51 51" fill="none" xmlns="http://www.w3.org/2000/svg">
<g clip-path="url(#clip0_22028_709)">
<path d="M23.7479 46.3333C24.6584 47.9042 25.8146 49.3083 27.1688 50.5H7.00627C6.76044 50.4125 0.666687 48.1917 0.666687 41.8687C0.666687 32.7229 12.1313 22.0646 15.25 19.3333V4.66667H11.0834V0.5H38.1667V4.66667H34V19.3333C34.5438 19.8083 35.35 20.5375 36.2959 21.4458C34.6229 21.6333 33.025 22.0667 31.5375 22.7125C31.1959 22.4104 29.8334 21.2729 29.8334 21.2729V4.66667H19.4167V21.2708L18.6625 21.8958C16.5396 23.6562 12.5479 27.4375 9.39585 31.6437H22.7604C22.2188 32.9562 21.85 34.3542 21.6584 35.8104H6.70002C5.56877 37.9125 4.83335 39.9937 4.83335 41.8687C4.83335 44.675 6.95627 45.9458 7.78335 46.3333H23.7479ZM47.0875 40.7354L50.0375 42.4354L47.9584 46.0458L45.0188 44.3521C43.7584 45.7104 42.1167 46.6958 40.25 47.1229V50.5H36.0834V47.1229C34.2167 46.6958 32.5729 45.7104 31.3146 44.3521L28.375 46.0458L26.2959 42.4354L29.2459 40.7354C28.9771 39.8646 28.7917 38.9583 28.7917 38C28.7917 37.0417 28.9771 36.1354 29.2459 35.2646L26.2959 33.5646L28.375 29.9542L31.3146 31.6479C32.575 30.2896 34.2167 29.3042 36.0834 28.8771V25.5H40.25V28.8771C42.1167 29.3042 43.7604 30.2896 45.0188 31.6479L47.9584 29.9542L50.0375 33.5646L47.0875 35.2646C47.3563 36.1354 47.5417 37.0417 47.5417 38C47.5417 38.9583 47.3563 39.8646 47.0875 40.7354ZM43.375 38C43.375 35.1292 41.0375 32.7917 38.1667 32.7917C35.2959 32.7917 32.9584 35.1292 32.9584 38C32.9584 40.8708 35.2959 43.2083 38.1667 43.2083C41.0375 43.2083 43.375 40.8708 43.375 38Z" fill="#2D6BFE"/>
</g>
<defs>
<clipPath id="clip0_22028_709">
<rect width="50" height="50" fill="white" transform="translate(0.666687 0.5)"/>
</clipPath>
</defs>
</svg>
