<svg xmlns="http://www.w3.org/2000/svg" width="17" height="16" fill="none"><path stroke="currentColor" stroke-width="1.5" d="M1.3 8.04c0-2.715 0-4.073.843-4.916.844-.844 2.202-.844 4.917-.844h2.88c2.715 0 4.073 0 4.916.844.844.843.844 2.2.844 4.916v1.44c0 2.715 0 4.073-.844 4.916-.843.844-2.2.844-4.916.844H7.06c-2.715 0-4.073 0-4.917-.844-.843-.843-.843-2.2-.843-4.916V8.04Z"/><path stroke="currentColor" stroke-linecap="round" stroke-width="1.5" d="M4.9 2.28V1.2M12.1 2.28V1.2M1.66 5.88h13.68"/></svg>