<svg width="21" height="20" viewBox="0 0 21 20" fill="none" xmlns="http://www.w3.org/2000/svg">
<path d="M13.9286 2.84828L13.36 3.48008L13.9286 2.84828ZM17.4915 6.05489L16.9229 6.68669L17.4915 6.05489ZM19.5636 8.33869L18.7871 8.6845L18.7871 8.6845L19.5636 8.33869ZM2.92942 17.9456L3.53046 17.3445L3.53046 17.3445L2.92942 17.9456ZM18.8206 17.9456L18.2195 17.3445L18.2195 17.3445L18.8206 17.9456ZM12.675 18.15H9.075V19.85H12.675V18.15ZM2.725 11.8V8.2H1.025V11.8H2.725ZM19.025 11.4066V11.8H20.725V11.4066H19.025ZM13.36 3.48008L16.9229 6.68669L18.0602 5.42309L14.4973 2.21648L13.36 3.48008ZM20.725 11.4066C20.725 9.90254 20.7422 8.8957 20.3401 7.99287L18.7871 8.6845C19.0078 9.18009 19.025 9.75238 19.025 11.4066H20.725ZM16.9229 6.68669C18.1525 7.79331 18.5664 8.18891 18.7871 8.6845L20.3401 7.99287C19.938 7.09005 19.1781 6.42926 18.0602 5.42309L16.9229 6.68669ZM9.10181 1.85C10.5387 1.85 11.0373 1.86312 11.4788 2.03254L12.0878 0.445389C11.2839 0.136877 10.4099 0.15 9.10181 0.15V1.85ZM14.4973 2.21648C13.5296 1.34562 12.8917 0.753855 12.0878 0.445389L11.4788 2.03254C11.9204 2.20201 12.2975 2.52381 13.36 3.48008L14.4973 2.21648ZM9.075 18.15C7.35391 18.15 6.14861 18.1482 5.23808 18.0258C4.35201 17.9066 3.87341 17.6875 3.53046 17.3445L2.32837 18.5466C3.03984 19.2581 3.93698 19.5661 5.01156 19.7106C6.06169 19.8518 7.40197 19.85 9.075 19.85V18.15ZM1.025 11.8C1.025 13.473 1.02319 14.8133 1.16438 15.8634C1.30886 16.938 1.61691 17.8352 2.32838 18.5466L3.53046 17.3445C3.1875 17.0016 2.96835 16.523 2.84922 15.6369C2.72681 14.7264 2.725 13.5211 2.725 11.8H1.025ZM12.675 19.85C14.348 19.85 15.6883 19.8518 16.7384 19.7106C17.813 19.5661 18.7102 19.2581 19.4216 18.5466L18.2195 17.3445C17.8766 17.6875 17.398 17.9066 16.5119 18.0258C15.6014 18.1482 14.3961 18.15 12.675 18.15V19.85ZM19.025 11.8C19.025 13.5211 19.0232 14.7264 18.9008 15.6369C18.7816 16.523 18.5625 17.0016 18.2195 17.3445L19.4216 18.5466C20.1331 17.8352 20.4411 16.938 20.5856 15.8634C20.7268 14.8133 20.725 13.473 20.725 11.8H19.025ZM2.725 8.2C2.725 6.47891 2.72681 5.27361 2.84922 4.36308C2.96835 3.47701 3.1875 2.99841 3.53046 2.65546L2.32837 1.45337C1.61691 2.16484 1.30886 3.06198 1.16438 4.13656C1.02319 5.18669 1.025 6.52697 1.025 8.2H2.725ZM9.10181 0.15C7.41977 0.15 6.07307 0.14821 5.01877 0.289314C3.94066 0.433604 3.0405 0.741251 2.32837 1.45337L3.53046 2.65546C3.87275 2.31316 4.35279 2.0936 5.24428 1.97429C6.15958 1.85179 7.37187 1.85 9.10181 1.85V0.15Z" fill="white"/>
<path d="M11.7749 1.44995V3.69995C11.7749 5.82127 11.7749 6.88193 12.4339 7.54094C13.0929 8.19995 14.1536 8.19995 16.2749 8.19995H19.8749" stroke="white" stroke-width="1.7"/>
<path d="M7.7249 15.8501L7.7249 11.3501M7.7249 11.3501L5.9249 13.0376M7.7249 11.3501L9.5249 13.0376" stroke="white" stroke-width="1.7" stroke-linecap="round" stroke-linejoin="round"/>
</svg>
