<svg width="51" height="50" viewBox="0 0 51 50" fill="none" xmlns="http://www.w3.org/2000/svg">
<g clip-path="url(#clip0_22076_2618)">
<path d="M50.5 10.4167C50.5 5.82087 46.7625 2.08337 42.1667 2.08337C37.5708 2.08337 33.8333 5.82087 33.8333 10.4167C33.8333 14.2917 36.4937 17.5584 40.0833 18.4854V31.25C40.0833 34.6959 37.2792 37.5 33.8333 37.5H26.8146L31.4042 32.9104C32.2187 32.0959 32.2187 30.7792 31.4042 29.9646C30.5896 29.15 29.2729 29.15 28.4583 29.9646L23.1646 35.2584C22.0208 36.4 21.3333 37.5 21.3333 39.5834C21.3333 41.6667 21.9521 42.8854 23.1646 44.0979L28.4583 49.3917C28.8646 49.7979 29.3979 50.0021 29.9312 50.0021C30.4646 50.0021 30.9979 49.7979 31.4042 49.3917C32.2187 48.5771 32.2187 47.2604 31.4042 46.4459L26.6271 41.6688H33.8333C39.5771 41.6688 44.25 36.9959 44.25 31.2521V18.4875C47.8396 17.5604 50.5 14.2917 50.5 10.4167ZM42.1667 14.5834C39.8687 14.5834 38 12.7146 38 10.4167C38 8.11878 39.8687 6.25003 42.1667 6.25003C44.4646 6.25003 46.3333 8.11878 46.3333 10.4167C46.3333 12.7146 44.4646 14.5834 42.1667 14.5834ZM28.0083 14.8375C29.1896 13.6563 29.8396 12.0875 29.8396 10.4167C29.8396 8.74586 29.1896 7.17712 28.0083 5.99795L22.7146 0.704199C21.9 -0.110384 20.5833 -0.110384 19.7687 0.704199C18.9542 1.51878 18.9542 2.83545 19.7687 3.65003L24.45 8.33337H17.1667C11.4229 8.33337 6.75 13.0063 6.75 18.75V31.5146C3.16042 32.4417 0.5 35.7084 0.5 39.5834C0.5 44.1792 4.2375 47.9167 8.83333 47.9167C13.4292 47.9167 17.1667 44.1792 17.1667 39.5834C17.1667 35.7084 14.5062 32.4417 10.9167 31.5146V18.75C10.9167 15.3042 13.7208 12.5 17.1667 12.5H24.4521L19.7687 17.1834C18.9542 17.9979 18.9542 19.3146 19.7687 20.1292C20.175 20.5354 20.7083 20.7396 21.2417 20.7396C21.775 20.7396 22.3083 20.5354 22.7146 20.1292L28.0083 14.8375ZM13 39.5834C13 41.8813 11.1312 43.75 8.83333 43.75C6.53542 43.75 4.66667 41.8813 4.66667 39.5834C4.66667 37.2854 6.53542 35.4167 8.83333 35.4167C11.1312 35.4167 13 37.2854 13 39.5834Z" fill="#2955B6"/>
</g>
<defs>
<clipPath id="clip0_22076_2618">
<rect width="50" height="50" fill="white" transform="translate(0.5)"/>
</clipPath>
</defs>
</svg>
